<svg width="519" height="381" viewBox="0 0 519 381" fill="none" xmlns="http://www.w3.org/2000/svg">
<path d="M222.023 240.005L221.067 245.312L220.049 251.014L210.697 303.012H195.413L204.754 251.014L205.783 245.312L206.739 240.005H222.023Z" fill="#EBEBEB"/>
<path d="M219.81 240.005C218.999 245.274 218.137 250.533 217.264 255.783L214.563 271.551L211.736 287.291L210.282 295.151L208.765 303.012L210.011 295.113L211.31 287.225L214.043 271.466L216.869 255.726C217.794 250.477 218.771 245.236 219.81 240.005Z" fill="#C7C7C7"/>
<path d="M221.067 245.312L220.049 251.014H204.754L205.783 245.312H221.067Z" fill="#C7C7C7"/>
<path d="M297.499 240.005L298.455 245.312L299.473 251.014L308.825 303.012H324.109L314.768 251.014L313.739 245.312L312.783 240.005H297.499Z" fill="#EBEBEB"/>
<path d="M299.764 240.005C300.564 245.274 301.437 250.533 302.31 255.783L305.001 271.551L307.827 287.291L309.292 295.151L310.809 303.012L309.562 295.113L308.264 287.225L305.562 271.466L302.736 255.726C301.769 250.477 300.793 245.236 299.764 240.005Z" fill="#C7C7C7"/>
<path d="M298.455 245.312H313.739L314.768 251.014H299.473L298.455 245.312Z" fill="#C7C7C7"/>
<path d="M221.462 225.378H209.347L210.853 215.124H219.955L221.462 225.378Z" fill="#C7C7C7"/>
<path d="M226.534 209.598C227.619 204.026 223.518 198.711 217.375 197.728C211.232 196.744 205.374 200.464 204.289 206.036C203.205 211.608 207.306 216.922 213.449 217.906C219.591 218.889 225.45 215.17 226.534 209.598Z" fill="#DBDBDB"/>
<path d="M223.766 209.6C224.86 205.411 222.003 201.21 217.385 200.218C212.768 199.225 208.137 201.817 207.043 206.005C205.949 210.194 208.805 214.394 213.423 215.387C218.041 216.379 222.672 213.788 223.766 209.6Z" fill="white"/>
<path d="M222.584 207.347C222.504 206.419 222.214 205.515 221.731 204.692C221.248 203.87 220.583 203.147 219.778 202.569C218.968 201.998 218.038 201.582 217.045 201.347C216.051 201.112 215.016 201.063 214.001 201.202C212.994 201.346 212.031 201.681 211.175 202.184C210.32 202.687 209.59 203.348 209.035 204.124C208.448 204.953 208.064 205.887 207.908 206.863C207.752 207.838 207.828 208.832 208.131 209.779C208.647 211.414 209.853 212.799 211.487 213.634C213.081 214.455 214.952 214.716 216.744 214.369C218.478 214.033 220.033 213.168 221.15 211.918C222.253 210.684 222.89 209.161 222.968 207.573C222.968 207.507 222.968 207.442 222.896 207.442C222.823 207.442 222.823 207.498 222.823 207.573C222.783 208.216 222.647 208.85 222.418 209.458C222.178 210.056 221.861 210.626 221.472 211.155C221.062 211.668 220.588 212.136 220.059 212.55C219.515 212.962 218.919 213.313 218.282 213.596C217.367 213.987 216.373 214.201 215.362 214.223C214.351 214.246 213.346 214.077 212.412 213.728C211.474 213.368 210.633 212.827 209.948 212.144C209.263 211.46 208.749 210.65 208.442 209.769C208.127 208.865 208.031 207.909 208.16 206.967C208.289 206.025 208.64 205.12 209.191 204.312C209.722 203.546 210.428 202.893 211.262 202.395C212.095 201.898 213.036 201.568 214.022 201.428C215.354 201.236 216.718 201.374 217.971 201.827C219.224 202.28 220.318 203.031 221.14 204.001C221.535 204.502 221.856 205.047 222.095 205.622C222.327 206.207 222.48 206.814 222.553 207.432C222.553 207.432 222.584 207.376 222.584 207.347Z" fill="#EBEBEB"/>
<path d="M221.576 207.357C221.502 206.562 221.247 205.789 220.829 205.086C220.411 204.384 219.837 203.768 219.145 203.276C218.45 202.791 217.655 202.437 216.808 202.233C215.961 202.029 215.077 201.98 214.209 202.088C213.341 202.206 212.51 202.488 211.771 202.917C211.031 203.346 210.4 203.911 209.918 204.576C209.405 205.287 209.066 206.088 208.923 206.927C208.779 207.765 208.835 208.622 209.087 209.44C209.301 210.148 209.669 210.81 210.168 211.387C210.668 211.965 211.289 212.447 211.996 212.804C213.384 213.525 215.019 213.746 216.578 213.427C218.083 213.132 219.429 212.377 220.391 211.287C221.344 210.214 221.894 208.893 221.96 207.517C221.96 207.461 221.96 207.404 221.898 207.404C221.836 207.404 221.815 207.451 221.815 207.517C221.73 208.622 221.321 209.686 220.631 210.599C219.94 211.512 218.993 212.241 217.887 212.71C217.101 213.057 216.242 213.249 215.368 213.272C214.493 213.294 213.624 213.148 212.817 212.842C212.005 212.531 211.277 212.062 210.685 211.47C210.093 210.877 209.65 210.175 209.388 209.412C209.118 208.628 209.04 207.801 209.158 206.987C209.277 206.173 209.589 205.392 210.074 204.699C210.531 204.045 211.14 203.489 211.857 203.069C212.575 202.649 213.384 202.376 214.23 202.267C215.361 202.115 216.516 202.237 217.579 202.621C218.641 203.005 219.572 203.637 220.277 204.454C220.616 204.879 220.896 205.342 221.108 205.83C221.303 206.331 221.439 206.849 221.514 207.376L221.576 207.357Z" fill="#EBEBEB"/>
<path d="M220.568 207.366C220.493 206.703 220.271 206.062 219.913 205.48C219.556 204.898 219.072 204.389 218.49 203.982C217.322 203.177 215.852 202.818 214.396 202.983C213.667 203.071 212.967 203.297 212.342 203.648C211.717 203.999 211.181 204.466 210.77 205.019C210.325 205.616 210.027 206.293 209.897 207.004C209.766 207.714 209.805 208.442 210.012 209.138C210.186 209.744 210.495 210.313 210.918 210.808C211.341 211.304 211.87 211.717 212.474 212.022C213.665 212.626 215.061 212.807 216.391 212.531C217.674 212.261 218.812 211.594 219.612 210.646C220.404 209.736 220.868 208.627 220.942 207.47C220.942 207.413 220.942 207.366 220.87 207.366C220.857 207.367 220.845 207.37 220.834 207.376C220.824 207.381 220.814 207.389 220.806 207.397C220.799 207.406 220.793 207.416 220.789 207.427C220.786 207.438 220.785 207.449 220.786 207.46C220.706 208.388 220.358 209.28 219.778 210.047C219.198 210.815 218.407 211.43 217.482 211.833C216.82 212.13 216.096 212.295 215.358 212.318C214.619 212.341 213.884 212.221 213.201 211.965C212.511 211.707 211.893 211.312 211.392 210.81C210.89 210.308 210.518 209.711 210.302 209.062C210.087 208.402 210.032 207.708 210.139 207.026C210.247 206.345 210.515 205.692 210.926 205.113C211.318 204.574 211.834 204.118 212.438 203.777C213.043 203.435 213.721 203.216 214.427 203.134C215.361 203.034 216.308 203.134 217.191 203.426C218.081 203.732 218.861 204.254 219.446 204.934C219.735 205.281 219.973 205.662 220.153 206.065C220.327 206.479 220.449 206.909 220.516 207.347C220.516 207.347 220.579 207.375 220.568 207.366Z" fill="#EBEBEB"/>
<path d="M219.571 207.376C219.418 206.313 218.809 205.348 217.877 204.69C216.945 204.057 215.783 203.767 214.625 203.879C214.036 203.941 213.468 204.115 212.957 204.39C212.447 204.664 212.006 205.033 211.664 205.472C211.291 205.956 211.038 206.507 210.919 207.087C210.801 207.667 210.821 208.264 210.978 208.837C211.116 209.341 211.367 209.814 211.715 210.225C212.064 210.637 212.503 210.98 213.004 211.231C213.991 211.726 215.147 211.871 216.246 211.636C217.29 211.407 218.217 210.861 218.875 210.09C219.5 209.337 219.862 208.431 219.914 207.489C219.915 207.479 219.914 207.469 219.911 207.459C219.909 207.449 219.904 207.44 219.897 207.433C219.89 207.425 219.882 207.418 219.872 207.413C219.862 207.408 219.852 207.405 219.841 207.404C219.841 207.404 219.768 207.404 219.758 207.479C219.695 208.226 219.424 208.946 218.97 209.571C218.515 210.196 217.892 210.706 217.16 211.051C216.625 211.305 216.036 211.45 215.433 211.476C214.83 211.502 214.228 211.409 213.669 211.202C213.102 210.99 212.596 210.665 212.187 210.25C211.779 209.836 211.479 209.343 211.31 208.808C211.144 208.272 211.108 207.71 211.205 207.159C211.302 206.609 211.529 206.085 211.871 205.623C212.193 205.197 212.612 204.839 213.099 204.574C213.587 204.309 214.132 204.143 214.698 204.086C215.437 204.026 216.181 204.112 216.88 204.341C217.581 204.576 218.202 204.976 218.677 205.5C218.905 205.777 219.097 206.078 219.249 206.395C219.396 206.726 219.504 207.071 219.571 207.423V207.376Z" fill="#EBEBEB"/>
<path d="M309.916 225.378H297.79L299.297 215.124H308.409L309.916 225.378Z" fill="#C7C7C7"/>
<path d="M315.206 208.702C316.142 203.101 311.894 197.872 305.719 197.023C299.543 196.174 293.779 200.027 292.843 205.629C291.907 211.231 296.155 216.46 302.33 217.308C308.506 218.157 314.27 214.304 315.206 208.702Z" fill="#DBDBDB"/>
<path d="M312.34 208.973C313.055 204.717 309.832 200.741 305.14 200.092C300.449 199.443 296.066 202.367 295.35 206.623C294.635 210.878 297.858 214.854 302.55 215.503C307.241 216.152 311.624 213.228 312.34 208.973Z" fill="white"/>
<path d="M311.038 207.347C310.956 206.419 310.665 205.516 310.182 204.694C309.7 203.872 309.036 203.148 308.232 202.569C307.421 201.998 306.491 201.583 305.498 201.348C304.505 201.113 303.47 201.064 302.455 201.202C301.448 201.346 300.485 201.681 299.629 202.184C298.774 202.687 298.044 203.348 297.488 204.124C296.897 204.952 296.511 205.886 296.355 206.862C296.199 207.838 296.277 208.833 296.584 209.779C297.096 211.416 298.303 212.802 299.941 213.634C301.534 214.456 303.406 214.717 305.198 214.369C306.932 214.033 308.487 213.168 309.604 211.918C310.707 210.684 311.344 209.161 311.422 207.573C311.422 207.507 311.422 207.442 311.349 207.442C311.277 207.442 311.277 207.498 311.266 207.573C311.225 208.215 311.092 208.848 310.871 209.458C310.633 210.058 310.312 210.628 309.915 211.155C309.103 212.205 308.004 213.046 306.726 213.596C305.814 213.99 304.821 214.205 303.811 214.227C302.801 214.25 301.798 214.08 300.865 213.728C299.926 213.368 299.084 212.828 298.397 212.145C297.71 211.461 297.194 210.651 296.886 209.769C296.572 208.864 296.477 207.908 296.608 206.966C296.739 206.024 297.093 205.119 297.644 204.312C298.176 203.546 298.882 202.893 299.715 202.395C300.549 201.898 301.49 201.568 302.476 201.428C303.808 201.236 305.172 201.374 306.425 201.827C307.677 202.28 308.772 203.031 309.593 204.001C309.985 204.504 310.306 205.048 310.549 205.622C310.777 206.207 310.927 206.815 310.996 207.432C310.996 207.432 311.038 207.376 311.038 207.347Z" fill="#EBEBEB"/>
<path d="M310.03 207.357C309.951 206.563 309.694 205.791 309.276 205.09C308.858 204.388 308.288 203.771 307.598 203.276C306.903 202.791 306.109 202.437 305.262 202.233C304.415 202.029 303.531 201.98 302.663 202.088C301.793 202.204 300.96 202.486 300.219 202.915C299.477 203.344 298.844 203.91 298.361 204.576C297.849 205.287 297.509 206.088 297.366 206.927C297.223 207.765 297.279 208.622 297.53 209.44C297.745 210.148 298.112 210.81 298.612 211.387C299.111 211.965 299.733 212.447 300.439 212.804C301.828 213.523 303.462 213.745 305.022 213.427C306.53 213.134 307.881 212.379 308.845 211.287C309.794 210.212 310.343 208.892 310.414 207.517C310.414 207.461 310.414 207.404 310.341 207.404C310.269 207.404 310.269 207.451 310.258 207.517C310.176 208.621 309.769 209.685 309.08 210.598C308.391 211.511 307.445 212.24 306.341 212.71C305.555 213.057 304.696 213.249 303.822 213.272C302.947 213.294 302.078 213.148 301.271 212.842C300.456 212.532 299.727 212.065 299.133 211.472C298.538 210.879 298.094 210.176 297.831 209.412C297.565 208.627 297.489 207.801 297.607 206.987C297.725 206.174 298.036 205.394 298.517 204.699C298.977 204.047 299.586 203.492 300.303 203.072C301.02 202.653 301.829 202.378 302.673 202.267C303.808 202.11 304.968 202.23 306.034 202.614C307.101 202.999 308.035 203.634 308.741 204.454C309.084 204.877 309.364 205.34 309.573 205.83C309.777 206.328 309.913 206.847 309.978 207.376C309.987 207.376 309.997 207.374 310.006 207.371C310.015 207.368 310.023 207.363 310.03 207.357Z" fill="#EBEBEB"/>
<path d="M309.022 207.366C308.942 206.705 308.718 206.065 308.361 205.483C308.004 204.902 307.522 204.392 306.944 203.983C305.775 203.179 304.306 202.82 302.85 202.983C302.125 203.073 301.429 203.301 300.807 203.652C300.186 204.003 299.653 204.469 299.244 205.019C298.801 205.617 298.502 206.293 298.37 207.003C298.237 207.714 298.273 208.441 298.476 209.138C298.655 209.744 298.967 210.311 299.391 210.806C299.816 211.302 300.345 211.715 300.949 212.022C302.136 212.625 303.529 212.807 304.855 212.531C306.14 212.261 307.282 211.594 308.087 210.646C308.881 209.738 309.342 208.627 309.406 207.47C309.406 207.413 309.406 207.366 309.344 207.366C309.332 207.367 309.32 207.371 309.309 207.376C309.298 207.381 309.288 207.389 309.281 207.398C309.273 207.406 309.267 207.416 309.264 207.427C309.26 207.438 309.259 207.449 309.261 207.46C309.178 208.387 308.83 209.279 308.25 210.046C307.67 210.813 306.88 211.429 305.957 211.834C305.294 212.13 304.57 212.296 303.832 212.318C303.094 212.341 302.359 212.221 301.676 211.966C300.986 211.707 300.368 211.312 299.866 210.81C299.365 210.308 298.993 209.711 298.777 209.063C298.562 208.402 298.506 207.708 298.614 207.026C298.721 206.345 298.989 205.692 299.4 205.114C299.789 204.574 300.303 204.117 300.906 203.776C301.509 203.434 302.186 203.215 302.892 203.134C303.829 203.034 304.779 203.134 305.666 203.426C306.555 203.732 307.335 204.254 307.92 204.934C308.21 205.282 308.447 205.662 308.627 206.065C308.792 206.482 308.914 206.911 308.991 207.347C308.999 207.356 309.01 207.363 309.022 207.366Z" fill="#EBEBEB"/>
<path d="M308.014 207.375C307.942 206.849 307.757 206.341 307.468 205.88C307.179 205.419 306.792 205.014 306.331 204.689C305.398 204.057 304.236 203.768 303.078 203.879C302.488 203.937 301.918 204.109 301.407 204.384C300.897 204.659 300.457 205.029 300.117 205.471C299.745 205.956 299.491 206.506 299.373 207.087C299.255 207.667 299.275 208.263 299.431 208.836C299.569 209.34 299.82 209.813 300.169 210.225C300.518 210.637 300.956 210.979 301.458 211.23C302.442 211.725 303.594 211.87 304.689 211.635C305.735 211.404 306.665 210.859 307.328 210.09C307.954 209.336 308.316 208.43 308.367 207.488C308.37 207.479 308.371 207.469 308.37 207.46C308.368 207.45 308.364 207.441 308.358 207.433C308.352 207.425 308.344 207.418 308.335 207.413C308.326 207.408 308.316 207.405 308.305 207.404C308.283 207.404 308.262 207.412 308.246 207.426C308.23 207.44 308.222 207.459 308.222 207.479C308.146 208.229 307.859 208.95 307.387 209.57C306.916 210.191 306.277 210.691 305.531 211.023C304.997 211.275 304.409 211.419 303.808 211.445C303.208 211.471 302.607 211.379 302.05 211.174C301.483 210.962 300.976 210.636 300.568 210.222C300.159 209.807 299.86 209.314 299.691 208.78C299.525 208.243 299.489 207.681 299.586 207.131C299.682 206.581 299.91 206.056 300.252 205.594C300.573 205.168 300.992 204.81 301.48 204.545C301.968 204.28 302.513 204.113 303.078 204.058C303.814 203.997 304.556 204.084 305.25 204.312C305.953 204.545 306.574 204.945 307.048 205.471C307.283 205.746 307.478 206.047 307.629 206.367C307.777 206.698 307.885 207.042 307.952 207.394C307.952 207.394 308.024 207.385 308.014 207.375Z" fill="#EBEBEB"/>
<path d="M335.923 220.156H183.589V246.584H335.923V220.156Z" fill="#DBDBDB"/>
<path d="M214.905 220.156L203.85 246.584H184.17L195.226 220.156H214.905Z" fill="#EBEBEB"/>
<path d="M255.231 220.156L244.175 246.584H224.496L235.551 220.156H255.231Z" fill="#EBEBEB"/>
<path d="M295.545 220.156L284.5 246.584H264.821L275.876 220.156H295.545Z" fill="#EBEBEB"/>
<path d="M335.881 220.156L324.826 246.584H305.146L316.202 220.156H335.881Z" fill="#EBEBEB"/>
<path d="M332.847 271.022H186.675V287.752H332.847V271.022Z" fill="#DBDBDB"/>
<path d="M216.713 271.022L206.115 287.742H187.235L197.844 271.022H216.713Z" fill="#EBEBEB"/>
<path d="M255.418 271.022L244.809 287.742H225.919L236.528 271.022H255.418Z" fill="#EBEBEB"/>
<path d="M294.102 271.022L283.493 287.742H264.614L275.222 271.022H294.102Z" fill="#EBEBEB"/>
<path d="M332.795 271.022L322.187 287.742H303.307L313.916 271.022H332.795Z" fill="#EBEBEB"/>
<path d="M486.065 94.2842H368.466C368.466 94.2842 380.124 65.3965 398.068 65.3965C416.012 65.3965 421.634 85.3304 421.634 85.3304C421.634 85.3304 433.739 74.501 443.693 74.501C453.647 74.501 462.281 88.8177 462.281 88.8177C462.281 88.8177 476.339 81.1174 486.065 94.2842Z" fill="#EBEBEB"/>
<path d="M170.892 26.5282H115.937C115.937 26.5282 128.208 10.3926 137.892 10.3926C147.575 10.3926 150.422 21.1465 150.422 21.1465C150.422 21.1465 157.249 16.1324 163.577 17.0278C169.904 17.9232 170.892 26.5282 170.892 26.5282Z" fill="#EBEBEB"/>
<path d="M467.341 142.73H412.386C412.386 142.73 424.668 126.594 434.341 126.594C444.015 126.594 446.872 137.348 446.872 137.348C446.872 137.348 453.698 132.325 460.026 133.229C466.354 134.134 467.341 142.73 467.341 142.73Z" fill="#EBEBEB"/>
<path d="M140.51 66.9711H33.4573C33.4573 66.9711 48.1182 37.2823 63.7974 35.4255C79.4765 33.5688 86.9784 57.4801 86.9784 57.4801C86.9784 57.4801 97.0987 48.9976 105.047 48.9976C112.996 48.9976 119.137 60.1285 119.137 60.1285C119.137 60.1285 135.076 52.532 140.51 66.9711Z" fill="#EBEBEB"/>
<path d="M37.3121 303.248L92.4022 303.021L147.503 302.937L257.683 302.776L367.873 302.937L422.964 303.021L478.054 303.248L422.964 303.474L367.873 303.559L257.683 303.719L147.503 303.559L92.4022 303.474L37.3121 303.248Z" fill="#263238"/>
<path d="M259.761 377.525C380.321 377.525 478.054 367.191 478.054 354.443C478.054 341.695 380.321 331.361 259.761 331.361C139.201 331.361 41.4681 341.695 41.4681 354.443C41.4681 367.191 139.201 377.525 259.761 377.525Z" fill="#EBEBEB"/>
<path d="M288.303 358.752C290.465 359.412 352.329 359.61 354.698 358.262C355.602 357.753 356.153 349.582 356.517 339.695C356.6 337.555 356.662 335.35 356.724 333.097L361.733 303.173L320.379 302.928L316.472 332.871L316.628 339.469C316.628 339.469 292.906 349.007 290.485 350.731C288.064 352.456 286.153 358.083 288.303 358.752Z" fill="#EB9481"/>
<path d="M288.303 358.752C290.465 359.411 352.329 359.609 354.698 358.261C355.789 357.639 356.392 345.707 356.724 333.106L316.472 332.88L316.628 339.477C316.628 339.477 292.906 349.016 290.485 350.74C288.064 352.465 286.153 358.082 288.303 358.752Z" fill="white"/>
<path d="M288.303 358.752C290.465 359.412 352.329 359.61 354.698 358.262C355.602 357.753 356.153 349.581 356.517 339.695L316.628 339.459C316.628 339.459 292.906 348.997 290.485 350.722C288.064 352.447 286.153 358.083 288.303 358.752Z" fill="#F73859"/>
<path d="M289.207 356.508C299.598 356.31 341.43 356.395 351.695 356.914C351.779 356.914 351.779 356.97 351.695 356.98C341.419 357.375 299.567 356.98 289.197 356.659C288.979 356.65 288.989 356.508 289.207 356.508Z" fill="#263238"/>
<path d="M294.475 348.714C295.635 348.684 296.789 348.875 297.863 349.275C298.937 349.674 299.906 350.273 300.709 351.032C302.161 352.38 302.987 354.182 303.016 356.065C303.016 356.122 302.891 356.122 302.881 356.065C302.542 354.208 301.549 352.5 300.051 351.197C298.552 349.894 296.629 349.066 294.569 348.836C294.551 348.848 294.529 348.852 294.507 348.849C294.486 348.845 294.467 348.834 294.454 348.818C294.442 348.801 294.437 348.781 294.441 348.762C294.445 348.742 294.457 348.725 294.475 348.714Z" fill="#263238"/>
<path d="M312.607 340.382C316.763 340.382 321.563 341.692 324.13 344.774C324.234 344.896 324.047 345.019 323.922 344.962C320.284 343.226 316.452 341.845 312.492 340.844C312.425 340.83 312.366 340.792 312.329 340.739C312.292 340.686 312.28 340.622 312.295 340.561C312.31 340.5 312.352 340.446 312.41 340.413C312.468 340.379 312.539 340.368 312.607 340.382Z" fill="#263238"/>
<path d="M309.396 341.503C313.552 341.503 318.352 342.813 320.919 345.905C321.023 346.018 320.836 346.15 320.711 346.084C317.076 344.345 313.243 342.967 309.282 341.974C309.223 341.952 309.175 341.912 309.145 341.861C309.116 341.81 309.108 341.752 309.121 341.695C309.135 341.639 309.17 341.589 309.22 341.554C309.27 341.519 309.333 341.501 309.396 341.503Z" fill="#263238"/>
<path d="M306.185 342.635C310.342 342.588 315.142 343.935 317.719 347.027C317.812 347.14 317.625 347.272 317.501 347.215C313.867 345.469 310.035 344.088 306.071 343.097C306.004 343.083 305.945 343.045 305.908 342.992C305.871 342.939 305.859 342.875 305.874 342.814C305.889 342.752 305.93 342.699 305.989 342.666C306.047 342.632 306.118 342.621 306.185 342.635Z" fill="#263238"/>
<path d="M302.975 343.757C307.131 343.757 311.942 345.057 314.508 348.149C314.602 348.262 314.415 348.394 314.29 348.337C310.657 346.591 306.824 345.21 302.861 344.219C302.793 344.205 302.734 344.167 302.697 344.114C302.66 344.061 302.648 343.997 302.663 343.936C302.678 343.875 302.72 343.821 302.778 343.788C302.837 343.754 302.907 343.743 302.975 343.757Z" fill="#263238"/>
<path d="M349.119 347.969C353.784 347.969 353.743 354.566 349.119 354.566C344.495 354.566 344.422 347.941 349.119 347.969Z" fill="#263238"/>
<path d="M308.472 335.839C310.695 338.468 314.103 340.136 317.054 341.993C317.123 342.029 317.201 342.049 317.28 342.053C317.36 342.056 317.439 342.043 317.512 342.013C317.585 341.984 317.649 341.94 317.699 341.884C317.75 341.828 317.785 341.762 317.802 341.691C317.818 341.695 317.835 341.694 317.851 341.69C317.867 341.686 317.882 341.679 317.894 341.669C317.906 341.659 317.915 341.646 317.921 341.632C317.927 341.618 317.929 341.603 317.927 341.588C317.638 338.133 316.352 334.807 314.197 331.946C312.908 330.297 310.269 328.751 308.16 330.325C306.051 331.899 307.162 334.312 308.472 335.839ZM308.285 332.719C308.721 328.628 312.784 331.776 313.677 333.03C314.24 333.847 314.743 334.697 315.184 335.575C316.059 337.401 316.832 339.267 317.501 341.164C316.119 340.165 314.643 339.279 313.22 338.336C311.526 337.215 308.056 334.981 308.285 332.719Z" fill="#263238"/>
<path d="M332.681 339.232C332.369 336.772 329.273 336.235 327.091 336.603C323.353 337.313 319.886 338.899 317.033 341.202C317.018 341.211 317.006 341.222 316.997 341.236C316.988 341.25 316.984 341.266 316.984 341.282C316.984 341.298 316.988 341.314 316.997 341.328C317.006 341.342 317.018 341.354 317.033 341.362C316.989 341.423 316.962 341.492 316.954 341.565C316.946 341.637 316.957 341.71 316.987 341.777C317.016 341.845 317.063 341.905 317.124 341.952C317.184 342 317.257 342.034 317.334 342.05C320.888 342.559 324.608 343.511 328.234 342.993C330.354 342.729 332.982 341.56 332.681 339.232ZM322.904 341.824C321.148 341.617 319.423 341.325 317.709 341.174C319.672 340.278 321.584 339.289 323.641 338.601C324.63 338.245 325.644 337.949 326.675 337.715C328.276 337.385 333.616 337.658 330.832 340.882C329.2 342.654 324.992 342.06 322.904 341.824Z" fill="#263238"/>
<path d="M422.517 164.812C422.517 164.812 374.482 238.931 373.193 244.134C371.219 252.135 360.725 331.098 360.725 331.098L310.747 330.288C310.747 330.288 319.36 260.656 327.517 237.724C333.398 221.202 375.781 166.405 375.781 166.405L422.517 164.812Z" fill="#F73859"/>
<path d="M315.308 323.332C322.488 323.285 347.924 323.031 357.473 323.832C357.492 323.832 357.511 323.839 357.524 323.851C357.538 323.864 357.546 323.88 357.546 323.898C357.546 323.915 357.538 323.932 357.524 323.945C357.511 323.957 357.492 323.964 357.473 323.964C354.189 324.388 322.488 323.719 315.308 323.511C315.293 323.516 315.276 323.517 315.26 323.515C315.244 323.513 315.228 323.507 315.215 323.498C315.202 323.49 315.191 323.478 315.184 323.465C315.176 323.452 315.172 323.437 315.172 323.422C315.172 323.407 315.176 323.392 315.184 323.379C315.191 323.366 315.202 323.354 315.215 323.346C315.228 323.337 315.244 323.331 315.26 323.329C315.276 323.326 315.293 323.328 315.308 323.332Z" fill="#263238"/>
<path d="M414.319 171.617C411.202 176.094 407.846 180.477 404.625 184.916C401.403 189.355 398.203 193.804 395.034 198.281C388.71 207.216 382.531 216.232 376.498 225.33C373.573 229.518 371.066 233.934 369.006 238.526C367.131 243.141 365.722 247.901 364.798 252.748C363.811 257.621 363.167 262.531 362.564 267.441C361.913 272.669 361.269 277.897 360.631 283.125C359.315 293.806 357.999 304.507 356.683 315.226C356.517 316.536 356.361 317.856 356.215 319.166C356.215 319.364 356.569 319.402 356.6 319.166C358.065 308.535 359.291 297.875 360.631 287.225L362.626 271.372C363.239 266.442 363.832 261.513 364.704 256.603C365.484 251.773 366.662 247.003 368.227 242.333C369.94 237.494 372.243 232.844 375.095 228.469C380.882 219.412 387.013 210.505 393.143 201.627C399.273 192.748 405.56 183.719 412.033 174.925C412.823 173.842 413.633 172.758 414.464 171.693C414.579 171.608 414.381 171.532 414.319 171.617Z" fill="#263238"/>
<path d="M380.051 364.982C382.327 365.114 443.713 350.439 445.625 348.592C445.709 348.48 445.759 348.35 445.771 348.215C446.009 346.386 442.872 339.553 440.669 330.797C440.534 330.241 439.38 327.583 437.759 323.992C433.302 314.143 425.353 297.216 425.353 297.216L385.277 306.547L400.032 333.455L402.027 339.779C402.027 339.779 381.755 354.492 379.906 356.744C378.056 358.997 377.786 364.831 380.051 364.982Z" fill="#EB9481"/>
<path d="M380.051 364.982C382.327 365.114 443.713 350.439 445.625 348.592C445.709 348.48 445.759 348.35 445.771 348.215C446.01 346.386 442.872 339.553 440.669 330.797C440.534 330.241 439.381 327.583 437.76 323.992L400.042 333.417L402.037 339.741C402.037 339.741 381.766 354.454 379.916 356.706C378.067 358.959 377.786 364.831 380.051 364.982Z" fill="white"/>
<path d="M380.051 364.971C382.327 365.122 443.713 350.438 445.625 348.59C446.353 347.893 444.763 340.362 440.669 330.796L402.037 339.787C402.037 339.787 381.766 354.481 379.916 356.752C378.067 359.024 377.786 364.83 380.051 364.971Z" fill="#F73859"/>
<path d="M380.29 362.596C390.265 360.014 430.767 350.438 440.846 348.562C440.929 348.562 440.939 348.563 440.846 348.628C431.027 351.381 390.442 360.664 380.321 362.766C380.124 362.794 380.082 362.653 380.29 362.596Z" fill="#263238"/>
<path d="M383.21 353.85C384.318 353.56 385.48 353.483 386.623 353.622C387.767 353.762 388.865 354.115 389.849 354.661C391.628 355.631 392.929 357.183 393.486 358.996C393.486 359.053 393.382 359.081 393.361 358.996C392.506 357.272 391.057 355.847 389.232 354.934C387.407 354.021 385.304 353.671 383.241 353.935C383.234 353.944 383.225 353.951 383.215 353.955C383.204 353.96 383.192 353.961 383.181 353.96C383.169 353.958 383.158 353.954 383.149 353.947C383.14 353.941 383.134 353.932 383.13 353.922C383.126 353.912 383.126 353.901 383.128 353.891C383.131 353.88 383.137 353.871 383.145 353.863C383.154 353.856 383.164 353.851 383.175 353.849C383.187 353.846 383.199 353.847 383.21 353.85Z" fill="#263238"/>
<path d="M398.401 341.607C402.401 340.608 407.43 340.796 410.776 343.19C410.911 343.285 410.776 343.454 410.63 343.426C406.64 342.576 402.561 342.118 398.463 342.059C398.406 342.053 398.353 342.029 398.313 341.992C398.272 341.955 398.246 341.907 398.239 341.855C398.232 341.803 398.244 341.751 398.273 341.706C398.303 341.661 398.347 341.626 398.401 341.607Z" fill="#263238"/>
<path d="M395.616 343.435C399.616 342.436 404.645 342.625 407.991 345.018C408.126 345.113 407.991 345.282 407.835 345.254C403.843 344.422 399.764 343.983 395.668 343.944C395.594 343.95 395.52 343.929 395.462 343.886C395.405 343.843 395.368 343.781 395.362 343.713C395.355 343.646 395.378 343.578 395.425 343.526C395.473 343.474 395.542 343.441 395.616 343.435Z" fill="#263238"/>
<path d="M392.821 345.264C396.832 344.265 401.85 344.454 405.206 346.848C405.331 346.942 405.206 347.102 405.05 347.083C401.06 346.235 396.981 345.78 392.883 345.726C392.822 345.724 392.763 345.702 392.717 345.664C392.672 345.626 392.643 345.575 392.635 345.519C392.628 345.464 392.642 345.407 392.676 345.361C392.71 345.314 392.762 345.28 392.821 345.264Z" fill="#263238"/>
<path d="M390.036 347.082C394.037 346.093 399.066 346.281 402.411 348.675C402.546 348.769 402.411 348.93 402.266 348.901C398.274 348.062 394.196 347.611 390.099 347.554C390.03 347.561 389.96 347.543 389.906 347.505C389.851 347.466 389.816 347.409 389.808 347.346C389.8 347.284 389.819 347.221 389.862 347.171C389.905 347.122 389.967 347.09 390.036 347.082Z" fill="#263238"/>
<path d="M435.817 340.523C440.326 339.467 442.134 345.829 437.614 346.875C433.094 347.922 431.297 341.569 435.817 340.523Z" fill="#263238"/>
<path d="M393.122 338.167C396.021 340.193 399.783 340.994 403.149 342.135C403.226 342.154 403.307 342.157 403.385 342.142C403.464 342.128 403.537 342.097 403.6 342.052C403.663 342.007 403.713 341.949 403.747 341.883C403.78 341.818 403.796 341.745 403.793 341.673C403.81 341.673 403.827 341.669 403.842 341.661C403.857 341.654 403.87 341.643 403.879 341.63C403.888 341.617 403.894 341.602 403.895 341.586C403.896 341.571 403.894 341.555 403.887 341.541C402.637 338.26 400.459 335.335 397.569 333.058C395.865 331.767 392.873 330.872 391.273 332.889C389.673 334.906 391.439 336.989 393.122 338.167ZM392.083 335.198C391.356 331.136 396.167 333.256 397.382 334.255C398.159 334.913 398.885 335.618 399.554 336.367C400.918 337.926 402.191 339.549 403.367 341.23C401.746 340.589 400.073 340.08 398.432 339.486C396.458 338.789 392.478 337.432 392.073 335.198H392.083Z" fill="#263238"/>
<path d="M417.488 335.858C416.501 333.549 413.332 333.747 411.347 334.614C407.928 336.158 405.018 338.492 402.91 341.381C402.899 341.393 402.892 341.408 402.888 341.423C402.885 341.439 402.886 341.455 402.891 341.47C402.896 341.484 402.905 341.498 402.918 341.509C402.93 341.52 402.945 341.528 402.962 341.532C402.939 341.601 402.935 341.674 402.949 341.745C402.962 341.816 402.994 341.883 403.042 341.94C403.089 341.998 403.151 342.045 403.222 342.077C403.293 342.109 403.371 342.126 403.45 342.126C407.035 341.796 410.9 341.853 414.256 340.543C416.22 339.779 418.433 338.035 417.488 335.858ZM408.76 340.627C407.014 340.825 405.258 340.948 403.565 341.202C405.165 339.841 406.84 338.555 408.583 337.347C409.439 336.777 410.334 336.257 411.264 335.792C412.719 335.095 417.966 334.133 416.137 337.894C415.088 339.977 410.859 340.392 408.76 340.627Z" fill="#263238"/>
<path d="M397.289 331.692L442.196 321.004C442.196 321.004 399.201 244.256 399.595 238.96C399.907 234.247 431.089 193.079 432.845 185.369C435.661 172.749 428.886 161.476 422.319 154.502L375.874 166.377C375.874 166.377 379.573 173.663 386.368 178.262C386.368 178.262 357.182 222.466 356.434 237.018C355.685 251.57 397.289 331.692 397.289 331.692Z" fill="#F73859"/>
<path d="M396.437 324.152C402.941 322.465 401.05 322.87 407.586 321.24C410.786 320.448 431.806 315.236 434.923 314.963C434.996 314.963 435.027 315.057 434.923 315.085C432.055 316.254 410.942 321.136 407.731 321.871C401.165 323.379 403.025 322.88 396.437 324.331C396.364 324.341 396.312 324.152 396.437 324.152Z" fill="#263238"/>
<path d="M379.168 176.594C383.618 178.092 387.918 179.933 392.021 182.098C392.054 182.113 392.079 182.139 392.091 182.171C392.102 182.203 392.1 182.238 392.083 182.268C392.067 182.298 392.038 182.32 392.003 182.331C391.968 182.342 391.929 182.339 391.896 182.324C387.563 180.609 383.137 178.969 378.918 177.046C378.861 177.012 378.819 176.96 378.8 176.9C378.782 176.839 378.789 176.775 378.82 176.719C378.851 176.663 378.904 176.619 378.968 176.596C379.032 176.573 379.103 176.572 379.168 176.594Z" fill="#263238"/>
<path d="M384.623 175.557C384.953 176.298 385.23 177.056 385.454 177.829C385.698 178.431 385.807 179.072 385.776 179.714C385.762 179.735 385.743 179.753 385.719 179.765C385.695 179.778 385.668 179.784 385.641 179.784C385.614 179.784 385.587 179.778 385.563 179.765C385.539 179.753 385.52 179.735 385.506 179.714C385.117 179.15 384.822 178.537 384.633 177.895C384.353 177.188 384.051 176.49 383.802 175.783C383.625 175.331 384.446 175.105 384.623 175.557Z" fill="#263238"/>
<path d="M384.623 171.74C384.436 171.09 384.249 170.449 384.051 169.799C383.854 169.148 383.584 168.479 383.438 167.801C383.438 167.697 383.231 167.744 383.262 167.801C383.438 168.451 383.522 169.13 383.646 169.789C383.771 170.449 383.916 171.109 384.062 171.759C384.336 172.994 384.683 174.215 385.101 175.416C384.369 175.368 383.659 175.171 383.023 174.841C382.403 174.376 381.96 173.746 381.755 173.041C381.464 172.306 381.204 171.561 380.903 170.835C380.529 170.04 380.23 169.217 380.01 168.376C380.01 168.262 379.802 168.31 379.823 168.376C380.181 170.152 380.734 171.892 381.475 173.569C381.797 174.228 382.036 174.907 382.753 175.228C383.541 175.53 384.39 175.681 385.246 175.67C385.34 175.67 385.485 175.67 385.465 175.548C385.246 174.342 384.976 173.013 384.623 171.74Z" fill="#263238"/>
<path d="M385.392 179.733C383.625 182.627 381.61 185.388 379.718 188.216C377.827 191.043 376.123 193.795 374.399 196.623C370.928 202.334 367.707 208.197 364.767 214.153C363.312 217.1 361.927 220.082 360.61 223.098C359.241 226.099 358.113 229.186 357.234 232.334C356.407 235.477 356.252 238.733 356.776 241.929C357.434 245.205 358.364 248.432 359.561 251.58C361.968 258.791 364.898 265.85 368.331 272.711C368.445 272.937 368.86 272.767 368.767 272.532C366.315 266.255 363.78 259.997 361.566 253.682C359.436 247.518 356.901 241.128 358.075 234.577C358.731 231.435 359.719 228.358 361.026 225.388C362.287 222.334 363.631 219.315 365.058 216.33C367.884 210.44 371.042 204.719 374.284 199.017C376.092 195.822 377.994 192.664 379.833 189.479C381.672 186.293 383.48 182.994 385.548 179.903C385.61 179.724 385.485 179.648 385.392 179.733Z" fill="#263238"/>
<path d="M419.213 173.55C418.371 173.427 417.135 173.691 413.508 173.465C412.5 173.384 411.5 173.236 410.516 173.022C409.517 172.88 408.568 172.532 407.742 172.004C406.425 170.874 405.35 169.532 404.573 168.046C403.601 166.514 402.857 164.872 402.36 163.164C402.36 163.06 402.162 163.107 402.183 163.211C402.38 164.153 402.484 165.096 402.765 166.095C403.032 166.992 403.379 167.869 403.804 168.715C404.471 170.389 405.589 171.886 407.056 173.069C408.698 174.191 410.994 174.398 412.979 174.53C414.132 174.606 418.652 174.53 419.213 173.908C419.379 173.804 419.369 173.578 419.213 173.55Z" fill="#263238"/>
<path d="M431.047 312.239C425.381 301.796 419.839 291.287 414.422 280.712C409.006 270.138 403.748 259.484 398.65 248.752C397.24 246.232 396.115 243.589 395.294 240.863C394.598 237.876 395.616 235.208 397.008 232.503C399.599 227.598 402.495 222.831 405.684 218.225C408.801 213.587 412.168 209.054 415.462 204.502C418.868 200.043 421.99 195.411 424.813 190.628C427.369 186 428.792 181.071 428.065 175.887C427.338 170.704 424.875 165.916 422.246 161.363C421.55 160.166 420.833 158.979 420.168 157.772C420.116 157.688 419.961 157.772 420.023 157.857C422.953 162.626 425.769 167.631 427.14 172.937C427.847 175.582 428.065 178.315 427.785 181.024C427.419 183.759 426.57 186.423 425.27 188.913C422.828 193.776 419.42 198.262 416.21 202.72C412.999 207.178 409.581 211.816 406.38 216.434C403.129 221.057 400.143 225.829 397.434 230.732C396.25 232.928 394.951 235.218 394.66 237.678C394.348 240.383 395.418 242.965 396.572 245.406C401.559 256.019 406.817 266.547 412.157 277.018C417.498 287.489 423.036 297.998 428.657 308.403L430.735 312.333C430.871 312.55 431.13 312.399 431.047 312.239Z" fill="#263238"/>
<path d="M374.846 75.8964C375.885 71.5892 381.163 61.8437 391.585 63.7475C406.464 66.4714 408.615 92.475 416.023 100.581C429.437 115.265 429.873 129.798 418.88 132.126C406.557 134.727 394.567 122.701 394.982 96.7822C395.263 80.5524 390.223 73.3611 386.67 73.8417C383.116 74.3224 381.153 78.4223 381.153 78.4223L374.846 75.8964Z" fill="#263238"/>
<path d="M375.344 74.2856C376.08 72.2765 377.081 70.3555 378.326 68.5647C379.575 66.7297 381.231 65.1505 383.189 63.9275C385.216 62.6852 387.622 62.0522 390.068 62.1179C392.492 62.1843 394.863 62.7826 396.977 63.8616C399.038 64.9801 400.81 66.4876 402.172 68.2819C403.519 70.0449 404.638 71.9423 405.508 73.9369C407.158 77.8915 408.315 82.0013 408.957 86.1895C407.825 82.1402 406.359 78.1737 404.573 74.3233C403.646 72.4407 402.507 70.6499 401.175 68.9794C399.881 67.3305 398.217 65.9492 396.291 64.9266C394.364 63.9294 392.201 63.3639 389.984 63.2772C387.79 63.184 385.616 63.6967 383.75 64.7475C381.836 65.8424 380.174 67.2636 378.856 68.9322C378.168 69.7654 377.533 70.6339 376.955 71.5335C376.373 72.4006 375.843 73.3337 375.344 74.2856Z" fill="#263238"/>
<path d="M394.93 87.8379C395.086 90.4109 394.93 92.9934 394.868 95.5664C394.806 98.1394 394.691 100.703 394.681 103.267C394.671 105.83 394.764 108.384 395.055 110.92C395.292 113.444 395.8 115.941 396.572 118.375C397.302 120.794 398.533 123.065 400.198 125.067C401.945 127.016 404.055 128.671 406.433 129.958C408.813 131.269 411.501 132.05 414.277 132.239C415.666 132.337 417.063 132.27 418.433 132.041C419.138 131.922 419.832 131.758 420.512 131.551C421.188 131.37 421.832 131.1 422.423 130.75C421.265 131.515 419.946 132.057 418.548 132.343C417.154 132.672 415.718 132.834 414.277 132.824C412.824 132.799 411.379 132.613 409.976 132.267C408.576 131.91 407.227 131.408 405.955 130.769C404.679 130.135 403.475 129.39 402.359 128.545L401.539 127.904L400.749 127.235C400.213 126.777 399.713 126.285 399.253 125.764C397.466 123.662 396.14 121.269 395.346 118.714C393.907 113.669 393.353 108.45 393.704 103.248C393.787 100.665 394.006 98.0923 394.255 95.5287C394.504 92.9651 394.837 90.4109 394.93 87.8379Z" fill="#263238"/>
<path d="M373.994 75.9725C373.827 74.7755 374.627 73.145 375.459 72.8528C376.29 72.5607 382.919 74.4928 383.615 75.9348C384.311 77.3769 381.631 78.9131 381.631 78.9131L373.994 75.9725Z" fill="#F73859"/>
<path d="M381.932 118.423C377.848 123.71 348.319 145.586 332.214 146.396C324.94 146.754 296.491 143.946 290.153 141.58C282.371 138.677 297.759 121.194 302.622 121.938C308.71 122.881 330.302 124.945 334.603 125.049C341.503 125.209 362.658 114.681 376.903 111.938C384.27 110.534 385.09 114.351 381.932 118.423Z" fill="#EB9481"/>
<path d="M381.61 119.422C377.1 126.557 361.182 138.79 361.182 138.79L358.47 134.247L349.493 119.252C349.493 119.252 364.58 113.804 374.586 111.156C375.761 110.829 376.963 110.589 378.181 110.44C384.644 109.686 385.485 113.296 381.61 119.422Z" fill="#DBDBDB"/>
<path d="M381.61 119.421C377.1 126.556 361.182 138.789 361.182 138.789L358.47 134.247L356.621 131.155L349.482 119.261C349.482 119.261 364.58 113.794 374.586 111.146C375.763 110.828 376.964 110.591 378.181 110.439C378.309 110.43 378.437 110.43 378.565 110.439C384.675 109.836 385.423 113.417 381.61 119.421Z" fill="#384259"/>
<path d="M362.793 115.567C363.139 116.868 363.139 118.225 362.793 119.526C362.446 118.225 362.446 116.868 362.793 115.567ZM358.522 123.333C357.79 123.323 357.059 123.402 356.351 123.569C357.06 123.731 357.79 123.811 358.522 123.805C359.258 123.81 359.991 123.731 360.704 123.569C359.992 123.403 359.258 123.323 358.522 123.333ZM380.591 112.268C379.856 112.258 379.122 112.338 378.409 112.504C379.122 112.671 379.856 112.75 380.591 112.74C381.323 112.745 382.053 112.665 382.763 112.504C382.053 112.343 381.323 112.264 380.591 112.268ZM372.092 122.108C372.606 122.583 373.186 122.994 373.817 123.333C373.443 122.761 372.989 122.235 372.466 121.769C371.95 121.297 371.37 120.885 370.741 120.544C371.118 121.114 371.572 121.64 372.092 122.108ZM363.707 131.533C364.221 132.011 364.801 132.426 365.432 132.768C365.062 132.193 364.607 131.667 364.081 131.203C363.567 130.726 362.988 130.311 362.356 129.969C362.714 130.54 363.155 131.066 363.665 131.533H363.707Z" fill="white"/>
<path d="M363.957 135.445C362.45 132.683 355.8 121.562 354.19 119.243C354.075 119.083 353.94 119.102 354.023 119.243C356.969 124.8 360.243 130.208 363.832 135.445C363.873 135.558 363.998 135.52 363.957 135.445Z" fill="#263238"/>
<path d="M381.61 119.421C377.1 126.556 361.182 138.79 361.182 138.79L358.47 134.247L356.621 131.156C365.255 123.427 375.656 113.917 378.565 110.42C384.675 109.836 385.423 113.418 381.61 119.421Z" fill="#A6A6A6"/>
<path d="M366.886 152.287L369.245 175.849C372.422 175.716 375.589 175.427 378.731 174.982C387.019 173.854 395.23 172.303 403.326 170.336C411.357 168.451 420.771 165.849 431.536 162.381C431.536 162.381 407.191 122.551 390.389 111.561C390.005 111.307 389.631 111.071 389.246 110.854C389.174 110.798 389.101 110.769 389.028 110.722C381.391 106.34 374.482 109.78 370.658 114.662C369.692 115.887 360.34 135.171 360.808 141.636C361.234 147.32 366.886 152.287 366.886 152.287Z" fill="#384259"/>
<path d="M380.394 127.066C380.578 127.709 380.666 128.371 380.654 129.035C380.665 129.703 380.578 130.368 380.394 131.015C380.211 130.368 380.123 129.703 380.134 129.035C380.128 128.372 380.215 127.71 380.394 127.066ZM386.057 151.74C386.051 152.407 386.138 153.073 386.317 153.72C386.505 153.074 386.593 152.408 386.576 151.74C386.588 151.073 386.5 150.407 386.317 149.761C386.138 150.408 386.051 151.073 386.057 151.74ZM404.188 137.697C404.177 138.364 404.264 139.03 404.448 139.676C404.795 138.376 404.795 137.019 404.448 135.718C404.264 136.364 404.177 137.03 404.188 137.697ZM370.939 148.734C370.928 149.401 371.015 150.067 371.199 150.713C371.545 149.412 371.545 148.055 371.199 146.755C371.015 147.401 370.928 148.067 370.939 148.734ZM391.886 131.363C391.151 131.358 390.417 131.437 389.704 131.599C391.138 131.913 392.634 131.913 394.068 131.599C393.358 131.438 392.628 131.359 391.896 131.363H391.886ZM407.347 148.941C406.611 148.926 405.876 149.006 405.165 149.177C406.599 149.491 408.095 149.491 409.529 149.177C408.82 149.011 408.089 148.932 407.357 148.941H407.347ZM383.844 162.871C383.111 162.861 382.381 162.94 381.672 163.107C382.381 163.274 383.111 163.353 383.844 163.343C384.579 163.353 385.313 163.273 386.026 163.107C385.316 162.946 384.586 162.867 383.854 162.871H383.844ZM411.223 160.157C410.491 160.152 409.761 160.231 409.051 160.393C410.481 160.707 411.974 160.707 413.405 160.393C412.691 160.231 411.958 160.151 411.223 160.157ZM380.592 112.24C379.856 112.23 379.122 112.309 378.41 112.476C379.122 112.642 379.856 112.721 380.592 112.711C381.323 112.716 382.053 112.637 382.763 112.476C382.052 112.324 381.322 112.254 380.592 112.268V112.24ZM391.709 116.604C392.223 117.081 392.803 117.496 393.434 117.839C393.066 117.263 392.612 116.736 392.083 116.274C391.57 115.797 390.99 115.382 390.359 115.039C390.733 115.622 391.191 116.158 391.72 116.632L391.709 116.604ZM414.412 138.649C414.926 139.126 415.506 139.541 416.137 139.884C415.766 139.31 415.312 138.784 414.786 138.319C414.271 137.844 413.691 137.429 413.062 137.084C413.433 137.667 413.887 138.202 414.412 138.677V138.649ZM378.108 141.005C378.622 141.483 379.202 141.898 379.833 142.24C379.057 141.086 377.989 140.116 376.716 139.412C377.098 140.007 377.567 140.552 378.108 141.034V141.005ZM398.993 156.962C399.507 157.439 400.087 157.854 400.718 158.197C399.942 157.042 398.873 156.073 397.601 155.369C397.985 155.953 398.454 156.489 398.993 156.962ZM372.144 122.089C372.658 122.564 373.238 122.976 373.869 123.315C373.495 122.742 373.041 122.216 372.518 121.75C372.002 121.278 371.422 120.866 370.793 120.525C371.152 121.099 371.588 121.631 372.092 122.108L372.144 122.089ZM370.669 134.474C371.193 134.006 371.65 133.48 372.03 132.909C371.397 133.245 370.816 133.657 370.305 134.134C369.779 134.6 369.321 135.126 368.944 135.699C369.553 135.36 370.115 134.955 370.617 134.493L370.669 134.474ZM419.971 151.307C420.497 150.843 420.952 150.317 421.322 149.742C420.046 150.442 418.977 151.413 418.205 152.57C418.833 152.224 419.409 151.806 419.919 151.326L419.971 151.307ZM373.36 158.055C373.883 157.589 374.337 157.063 374.711 156.491C373.435 157.191 372.365 158.161 371.593 159.318C372.222 158.972 372.798 158.554 373.308 158.074L373.36 158.055ZM401.185 125.567C401.712 125.101 402.169 124.575 402.547 124.003C401.913 124.342 401.333 124.758 400.822 125.237C400.295 125.703 399.838 126.229 399.461 126.802C400.072 126.462 400.634 126.053 401.133 125.586L401.185 125.567ZM394.286 167.885C394.815 167.421 395.273 166.895 395.647 166.321C395.014 166.661 394.434 167.076 393.922 167.556C393.396 168.022 392.939 168.548 392.561 169.12C393.173 168.78 393.735 168.372 394.234 167.904L394.286 167.885ZM394.286 142.438C394.818 141.976 395.276 141.45 395.647 140.873C394.375 141.577 393.306 142.546 392.53 143.701C393.166 143.349 393.746 142.921 394.255 142.428L394.286 142.438Z" fill="white"/>
<path d="M384.259 110.317C384.114 111.26 379.978 117.386 375.469 117.546C373.993 117.593 373.339 110.336 373.339 110.336L373.152 109.808L370.585 102.447L379.771 96.0667L381.111 95.209C381.111 95.209 381.662 97.2731 382.327 99.8367L382.42 100.204C382.42 100.346 382.503 100.478 382.534 100.619L382.846 101.778C382.919 102.08 382.992 102.372 383.054 102.721L383.272 103.663C383.768 105.858 384.098 108.081 384.259 110.317Z" fill="#EB9481"/>
<path d="M382.368 99.8367C381.734 102.011 380.585 104.034 379 105.765C377.415 107.495 375.434 108.891 373.193 109.855L370.627 102.495L379.77 96.0667L381.111 95.209C381.111 95.209 381.661 97.2259 382.368 99.8367Z" fill="#263238"/>
<path d="M359.197 91.3535C359.125 104.907 368.071 106.481 371.292 106.49C374.212 106.49 384.176 106.198 385.839 92.7202C387.501 79.2424 380.529 74.9352 373.848 74.5864C367.167 74.2377 359.27 77.7721 359.197 91.3535Z" fill="#EB9481"/>
<path d="M384.976 93.6345C382.534 93.8607 381.859 89.2142 381.859 89.2142C381.859 89.2142 376.882 89.3461 375.064 82.8805C375.256 84.8255 376.073 86.6767 377.412 88.2057C377.412 88.2057 368.59 87.5836 364.704 80.9861C364.704 80.9861 366.273 84.3509 367.687 85.529C365.443 84.9549 363.478 83.7134 362.107 82.004C362.107 82.004 360.673 85.8871 359.52 86.971C359.52 86.971 357.816 80.1473 360.943 76.6035C367.531 69.0635 378.347 75.661 378.347 75.661C378.347 75.661 384.394 76.4904 386.556 80.5997C389.891 86.8862 384.976 93.6345 384.976 93.6345Z" fill="#263238"/>
<path d="M383.407 93.7196C383.407 93.7196 386.275 89.2615 388.488 90.1569C390.701 91.0523 388.8 97.3482 386.41 98.3661C386.115 98.517 385.789 98.6124 385.452 98.6465C385.115 98.6807 384.774 98.653 384.449 98.565C384.124 98.4771 383.822 98.3307 383.561 98.1346C383.3 97.9385 383.085 97.6967 382.929 97.4236L383.407 93.7196Z" fill="#EB9481"/>
<path d="M361.068 88.6116C361.419 88.5563 361.766 88.4807 362.107 88.3854C362.474 88.348 362.817 88.2023 363.084 87.9707C363.157 87.886 363.197 87.7814 363.197 87.6738C363.197 87.5661 363.157 87.4616 363.084 87.3769C362.906 87.2356 362.69 87.1395 362.459 87.0981C362.227 87.0567 361.987 87.0716 361.764 87.1413C361.288 87.2231 360.863 87.4614 360.569 87.8104C360.512 87.89 360.48 87.9822 360.477 88.077C360.473 88.1719 360.499 88.2658 360.55 88.3484C360.602 88.431 360.677 88.4993 360.768 88.5457C360.86 88.5921 360.963 88.6149 361.068 88.6116Z" fill="#263238"/>
<path d="M370.814 89.6672C370.465 89.6357 370.118 89.5854 369.775 89.5164C369.395 89.5099 369.029 89.3869 368.736 89.1677C368.661 89.0837 368.62 88.9789 368.62 88.8708C368.62 88.7627 368.661 88.6579 368.736 88.5739C368.899 88.4196 369.104 88.3083 369.331 88.2519C369.558 88.1955 369.798 88.196 370.024 88.2535C370.506 88.3018 370.952 88.5059 371.282 88.8284C371.349 88.906 371.39 88.9994 371.401 89.0976C371.412 89.1959 371.392 89.2949 371.343 89.383C371.293 89.4711 371.218 89.5447 371.124 89.595C371.03 89.6454 370.923 89.6704 370.814 89.6672Z" fill="#263238"/>
<path d="M368.861 92.4385C368.861 92.4385 368.933 92.4385 368.933 92.5233C368.933 93.4658 369.068 94.5214 369.972 94.8136V94.8701C368.861 94.7382 368.642 93.3244 368.861 92.4385Z" fill="#263238"/>
<path d="M369.723 91.457C371.365 91.3157 371.552 94.2845 370.024 94.4448C368.497 94.605 368.341 91.5701 369.723 91.457Z" fill="#263238"/>
<path d="M370.378 91.5808C370.679 91.741 370.98 92.0238 371.334 92.0426C371.687 92.0615 372.019 91.7222 372.269 91.4111H372.321C372.321 91.9861 372.154 92.5893 371.489 92.7118C370.824 92.8343 370.45 92.3348 370.201 91.7693C370.17 91.6845 370.263 91.5242 370.378 91.5808Z" fill="#263238"/>
<path d="M363.135 92.4844C363.135 92.4844 363.052 92.5315 363.063 92.5692C363.156 93.5117 363.063 94.5767 362.19 94.9349C362.19 94.9349 362.19 94.9914 362.19 94.9349C363.322 94.7747 363.385 93.3515 363.135 92.4844Z" fill="#263238"/>
<path d="M362.148 91.5703C360.496 91.5703 360.579 94.5486 362.148 94.5675C363.717 94.5863 363.541 91.5892 362.148 91.5703Z" fill="#263238"/>
<path d="M361.473 91.7781C361.213 91.9478 360.964 92.24 360.652 92.2682C360.34 92.2965 360.008 91.9761 359.769 91.665H359.717C359.717 92.24 359.946 92.8337 360.559 92.928C361.172 93.0222 361.504 92.5133 361.598 91.9384C361.67 91.8724 361.587 91.7122 361.473 91.7781Z" fill="#263238"/>
<path d="M364.85 96.5936C364.85 96.5936 364.704 97.9508 364.704 98.6388C366.103 98.6002 367.501 98.7334 368.86 99.0347C369.183 99.1195 369.162 98.8744 368.798 98.6954C367.714 98.1659 366.481 97.9396 365.255 98.045C365.203 97.866 365.525 95.9056 365.411 95.9056C364.853 95.9691 364.308 96.1023 363.79 96.3014C363.998 93.3891 364.725 90.5239 364.881 87.621C364.881 87.5985 364.871 87.5769 364.854 87.561C364.836 87.5451 364.812 87.5361 364.787 87.5361C364.763 87.5361 364.739 87.5451 364.721 87.561C364.704 87.5769 364.694 87.5985 364.694 87.621C363.816 90.6623 363.273 93.7753 363.073 96.914C363.104 97.2628 364.569 96.7161 364.85 96.5936Z" fill="#263238"/>
<path d="M366.398 98.6389C366.919 99.2596 367.648 99.7095 368.476 99.9207C369.733 100.034 369.816 98.9782 368.414 98.4976C367.74 98.3765 367.043 98.4254 366.398 98.6389Z" fill="#263238"/>
<path d="M368.497 99.9213C368.024 99.8492 367.581 99.6601 367.219 99.3747C367.448 99.0071 368.029 98.5924 369.401 99.1862C369.619 99.6197 369.297 99.9967 368.497 99.9213Z" fill="#FF99BA"/>
<path d="M382.067 108.696C383.896 108.696 386.971 109.111 391.127 111.976C391.127 111.976 382.462 118.3 374.399 118.3C371.521 118.3 370.658 114.653 370.658 114.653C370.658 114.653 374.534 108.753 382.067 108.696Z" fill="#EB9481"/>
<path d="M518.961 380.062H485.015C460.349 380.062 445.262 364.595 442.55 336.518C441.209 322.673 440.389 305.915 439.526 288.177C436.866 233.672 433.219 159.054 409.83 159.054H382.95V153.399H409.83C439.173 153.399 442.519 221.797 445.75 287.942C446.612 305.623 447.433 322.324 448.763 336.009C450.457 353.521 458.115 374.397 485.015 374.397H518.961V380.062Z" fill="#F73859"/>
<path opacity="0.2" d="M402.692 153.38L401.362 159.035H382.95V153.38H402.692Z" fill="black"/>
<path d="M332.286 122.362H321.418V191.25H332.286V122.362Z" fill="#F73859"/>
<path d="M321.428 127.452H280.105V185.454H321.428V127.452Z" fill="#F73859"/>
<path opacity="0.2" d="M321.418 127.461V185.463H311.152L306.549 127.461H321.418Z" fill="black"/>
<path d="M248.394 137.867H280.095V146.538H248.394C247.308 146.538 246.267 146.147 245.499 145.451C244.731 144.754 244.3 143.81 244.3 142.825V141.59C244.299 141.102 244.404 140.618 244.609 140.166C244.814 139.714 245.115 139.304 245.495 138.958C245.876 138.612 246.327 138.338 246.825 138.151C247.322 137.964 247.855 137.867 248.394 137.867Z" fill="#DBDBDB"/>
<path d="M280.095 137.867H268.967V146.529H280.095V137.867Z" fill="#A6A6A6"/>
<path d="M248.394 166.377H280.095V175.048H248.394C247.308 175.048 246.267 174.657 245.499 173.96C244.731 173.264 244.3 172.319 244.3 171.335V170.1C244.299 169.611 244.404 169.127 244.609 168.676C244.814 168.224 245.115 167.814 245.495 167.468C245.876 167.122 246.327 166.848 246.825 166.661C247.322 166.473 247.855 166.377 248.394 166.377Z" fill="#DBDBDB"/>
<path d="M280.095 166.377H268.967V175.039H280.095V166.377Z" fill="#A6A6A6"/>
<path d="M396.509 150.92H364.226V162.484H396.509V150.92Z" fill="#F73859"/>
<path d="M396.509 150.93H364.226V162.494H396.509V150.93Z" fill="#F73859"/>
<path opacity="0.2" d="M375.562 150.93L374.502 162.494H364.226V150.93H375.562Z" fill="black"/>
<path d="M332.286 129.639H357.836C359.531 129.639 361.156 130.249 362.355 131.336C363.553 132.423 364.226 133.898 364.226 135.435V177.48C364.226 179.017 363.553 180.492 362.355 181.579C361.156 182.666 359.531 183.276 357.836 183.276H332.286V129.639Z" fill="#F73859"/>
<path opacity="0.2" d="M345.877 129.639L341.274 183.276H332.297V129.639H345.877Z" fill="black"/>
<g opacity="0.2">
<path opacity="0.2" d="M343.497 140.478H341.461V172.428H343.497V140.478Z" fill="black"/>
<path opacity="0.2" d="M349.275 140.478H347.238V172.428H349.275V140.478Z" fill="black"/>
<path opacity="0.2" d="M355.052 140.478H353.015V172.428H355.052V140.478Z" fill="black"/>
</g>
<path d="M393.517 118.564C397.091 127.659 391.969 160.977 385.911 168.036C376.913 178.498 359.135 188.121 352.34 191.127C349.368 192.437 336.058 173.135 338.957 171.335C345.191 167.461 365.047 158.215 366.731 156.377C368.414 154.539 377.474 136.886 381.101 126.962C385.974 113.635 391.72 113.974 393.517 118.564Z" fill="#EB9481"/>
<path d="M352.319 191.184C342.895 196.066 324.14 195.35 321.584 194.643L318.28 193.7C314.342 192.692 313.282 190.722 313.282 190.722C313.282 190.722 308.357 190.778 307.817 188.083C307.214 185.058 314.249 185.566 318.311 183.7C327.663 179.431 339.528 170.986 342.074 169.516L352.319 191.184Z" fill="#EB9481"/>
<path d="M331.538 185.454C328.832 186.74 326.03 187.851 323.153 188.781C319.942 189.626 316.667 190.256 313.355 190.666C313.339 190.671 313.325 190.681 313.316 190.694C313.306 190.706 313.301 190.721 313.301 190.737C313.301 190.752 313.306 190.767 313.316 190.78C313.325 190.792 313.339 190.802 313.355 190.807C319.856 190.647 326.184 188.874 331.652 185.68C331.788 185.605 331.673 185.397 331.538 185.454Z" fill="#263238"/>
<path d="M335.196 190.175C332.432 191.212 327.559 193.002 318.27 193.624C318.27 193.624 318.27 193.671 318.27 193.681C324.169 194.051 330.065 192.925 335.3 190.429C335.466 190.316 335.383 190.109 335.196 190.175Z" fill="#263238"/>
<path d="M329.169 177.922C330.135 176.98 329.564 176.471 327.008 176.886C324.452 177.3 314.737 180.938 313.625 177.762C312.513 174.586 326.312 169.628 330.624 169.223C334.52 169.04 338.425 169.144 342.303 169.534C339.83 170.986 333.969 175.02 329.169 177.922Z" fill="#EB9481"/>
<path d="M383.49 120.854C389.777 108.855 395.512 112.032 396.063 123.898C396.248 132.138 395.839 140.381 394.837 148.573L372.051 142.654C372.051 142.654 379.469 128.535 383.49 120.854Z" fill="#384259"/>
<path d="M389.164 113.86C390.436 114.564 391.505 115.533 392.281 116.688C391.008 115.984 389.939 115.015 389.164 113.86ZM380.134 129.053C380.123 129.721 380.211 130.386 380.394 131.033C380.578 130.386 380.665 129.721 380.654 129.053C380.666 128.389 380.578 127.727 380.394 127.084C380.215 127.727 380.128 128.39 380.134 129.053ZM391.896 131.381C391.161 131.376 390.428 131.455 389.714 131.617C391.148 131.931 392.644 131.931 394.078 131.617C393.366 131.449 392.633 131.363 391.896 131.363V131.381ZM378.108 141.033C378.622 141.51 379.202 141.925 379.833 142.267C379.057 141.113 377.988 140.144 376.716 139.44C377.101 140.024 377.569 140.56 378.108 141.033ZM394.255 142.428C394.787 141.966 395.245 141.439 395.616 140.863C394.343 141.567 393.275 142.536 392.499 143.691C393.145 143.344 393.736 142.919 394.255 142.428Z" fill="white"/>
<path d="M381.329 124.511C380.477 126.085 379.584 127.63 378.69 129.223C378.842 128.488 378.967 127.744 379.064 126.99H379.002C378.877 127.574 378.721 128.158 378.597 128.743C378.545 129.025 378.482 129.308 378.42 129.591C378.42 129.647 378.42 129.704 378.42 129.77C377.724 130.976 377.038 132.192 376.342 133.417C375.552 134.888 374.814 136.367 374.066 137.847C373.318 139.327 372.622 141.137 371.78 142.635C372.497 142.906 373.242 143.108 374.004 143.238C374.201 143.304 374.305 143.125 374.097 143.097C373.89 143.069 372.186 142.456 372.165 142.447C372.913 140.948 373.838 139.534 374.627 138.064C375.417 136.594 376.228 135.142 376.986 133.662C378.524 130.665 379.875 127.583 381.402 124.577C381.402 124.501 381.329 124.473 381.329 124.511Z" fill="#263238"/>
<path d="M397.008 131.655C396.8 132.268 396.561 132.88 396.385 133.54C396.322 133.804 396.25 134.058 396.177 134.322C396.26 132.173 396.336 130.031 396.406 127.895C396.084 131.401 395.751 134.897 395.502 138.403C395.14 141.761 394.97 145.133 394.993 148.507C394.309 148.36 393.615 148.263 392.914 148.215C393.67 148.506 394.462 148.712 395.273 148.828C395.845 145.434 395.886 141.683 396.073 138.271C396.125 137.329 396.156 136.386 396.198 135.378C396.322 134.784 396.51 134.2 396.686 133.616C396.863 133.031 396.998 132.353 397.143 131.731C397.091 131.636 397.019 131.617 397.008 131.655Z" fill="#263238"/>
<path d="M393.912 145.444C390.701 144.407 377.401 140.6 374.471 139.949C374.264 139.902 374.18 140.006 374.388 140.072C380.763 142.221 387.263 144.049 393.86 145.548C393.943 145.576 393.995 145.463 393.912 145.444Z" fill="#263238"/>
<path d="M282.204 142.249C285.322 143.116 284.688 139.252 284.688 139.252C284.688 139.252 287.129 144.605 290.756 144.369C294.382 144.134 293.26 139.487 293.198 139.148C293.322 139.431 295.712 144.294 299.328 143.719C302.944 143.144 301.209 138.601 301.084 138.318C301.302 138.545 304.201 141.551 306.861 140.543C311.391 138.809 304.159 130.929 304.689 127.348L311.059 127.517C311.268 127.499 311.476 127.471 311.682 127.433L311.921 124.483C309.886 123.733 307.919 122.838 306.04 121.806C303.64 120.581 301.323 119.468 299.598 119.431C298.824 119.393 298.058 119.583 297.412 119.972C296.766 120.36 296.276 120.928 296.013 121.589C296.013 121.589 294.143 118.912 291.275 119.289C289.81 119.487 288.854 121.796 288.854 121.796C288.394 121.205 287.761 120.742 287.028 120.457C286.294 120.172 285.487 120.078 284.698 120.185C282.682 120.562 282.038 122.824 282.038 122.824C282.038 122.824 279.482 121.457 277.56 122.456C273.705 124.398 275.471 140.364 282.204 142.249Z" fill="#EB9481"/>
<path d="M305.479 127.009L311.027 127.471C311.237 127.453 311.445 127.425 311.651 127.386C318.654 126.237 323.018 118.96 317.885 118.442C314.03 118.037 309.853 122.683 305.957 121.75L305.479 127.009Z" fill="#EB9481"/>
<path d="M281.903 123.116H281.81C280.926 128.691 281.934 134.378 284.698 139.422C284.792 139.582 285.114 139.506 285.051 139.318C283.139 134.085 282.079 128.627 281.903 123.116Z" fill="#263238"/>
<path d="M288.854 121.674C288.854 121.609 288.74 121.609 288.73 121.674C287.794 127.822 289.312 134.069 293.011 139.29C293.146 139.469 293.468 139.507 293.322 139.29C291.016 135.652 288.854 126.849 288.854 121.674Z" fill="#263238"/>
<path d="M301.499 138.545C297.915 133.418 296.491 127.763 295.961 121.768C295.961 121.693 295.836 121.712 295.816 121.768C295.203 124.766 295.982 128.554 296.855 131.457C297.617 134.164 299.147 136.643 301.291 138.649C301.395 138.734 301.582 138.658 301.499 138.545Z" fill="#263238"/>
<path d="M213.731 353.369C211.58 354.02 149.996 353.86 147.648 352.512C146.765 352.003 146.266 343.86 145.975 334.01C145.902 331.89 145.861 329.694 145.819 327.46C145.819 324.821 145.736 322.144 145.715 319.543C145.643 307.875 145.819 297.602 145.819 297.602H185.916V319.543V327.46L185.708 334.01C185.708 334.01 209.253 343.643 211.684 345.377C214.116 347.111 215.882 352.766 213.731 353.369Z" fill="#AD6359"/>
<path d="M213.731 353.369C211.58 354.02 149.996 353.859 147.648 352.512C146.765 352.003 146.266 343.86 145.975 334.01C145.902 331.89 145.861 329.694 145.819 327.46C145.819 324.821 145.736 322.144 145.715 319.543H185.895V327.46L185.687 334.01C185.687 334.01 209.232 343.643 211.664 345.377C214.095 347.111 215.882 352.766 213.731 353.369Z" fill="white"/>
<path d="M213.918 353.493C212.516 353.917 186.29 354.002 167.161 353.644C162.735 353.549 158.693 353.446 155.441 353.314C150.942 353.125 147.929 352.908 147.44 352.626C146.349 351.994 145.84 340.043 145.591 327.433H185.875L185.667 334.03C185.667 334.03 209.347 343.719 211.757 345.463C214.168 347.206 216.121 352.833 213.918 353.493Z" fill="#F73859"/>
<path d="M213.004 351.249C202.613 350.985 160.74 350.834 150.453 351.296C150.37 351.296 150.37 351.343 150.453 351.353C160.74 351.814 202.624 351.654 213.004 351.4C213.253 351.39 213.264 351.249 213.004 351.249Z" fill="#263238"/>
<path d="M187.173 331.937C183.09 331.239 178.092 331.795 174.964 334.425C174.84 334.528 174.964 334.679 175.141 334.642C179.048 333.506 183.079 332.757 187.163 332.408C187.232 332.409 187.298 332.385 187.348 332.342C187.398 332.299 187.426 332.239 187.428 332.177C187.429 332.114 187.403 332.054 187.355 332.009C187.308 331.964 187.242 331.938 187.173 331.937Z" fill="#263238"/>
<path d="M190.145 333.577C186.062 332.87 181.064 333.426 177.926 336.065C177.812 336.159 177.926 336.319 178.103 336.282C182.016 335.14 186.053 334.384 190.145 334.029C190.199 334.015 190.246 333.985 190.28 333.944C190.314 333.904 190.332 333.854 190.332 333.803C190.332 333.752 190.314 333.702 190.28 333.662C190.246 333.621 190.199 333.591 190.145 333.577Z" fill="#263238"/>
<path d="M193.065 335.179C188.981 334.473 183.983 335.029 180.856 337.658C180.731 337.762 180.856 337.922 181.022 337.884C184.93 336.752 188.96 336 193.044 335.641C193.103 335.633 193.158 335.606 193.197 335.565C193.237 335.525 193.261 335.473 193.263 335.418C193.266 335.364 193.247 335.31 193.211 335.267C193.175 335.223 193.123 335.192 193.065 335.179Z" fill="#263238"/>
<path d="M196.005 336.802C191.922 336.095 186.924 336.651 183.796 339.28C183.672 339.384 183.796 339.544 183.973 339.506C187.876 338.369 191.903 337.617 195.984 337.263C196.044 337.255 196.098 337.228 196.138 337.187C196.178 337.147 196.201 337.095 196.204 337.04C196.206 336.986 196.188 336.932 196.152 336.889C196.115 336.845 196.064 336.814 196.005 336.802Z" fill="#263238"/>
<path d="M194.748 323.389C193.148 321.381 190.155 322.277 188.451 323.568C185.562 325.844 183.383 328.77 182.134 332.051C182.127 332.065 182.124 332.08 182.126 332.096C182.127 332.111 182.133 332.126 182.142 332.139C182.151 332.152 182.164 332.163 182.179 332.171C182.194 332.178 182.21 332.182 182.228 332.183C182.228 332.465 182.518 332.767 182.861 332.644C186.238 331.523 190.01 330.703 192.899 328.667C194.592 327.479 196.265 325.293 194.748 323.389ZM187.599 329.987C185.958 330.571 184.285 331.089 182.664 331.73C183.843 330.048 185.115 328.422 186.477 326.857C187.144 326.107 187.869 325.401 188.649 324.746C189.865 323.738 194.686 321.617 193.948 325.689C193.543 327.922 189.563 329.28 187.599 329.987Z" fill="#263238"/>
<path d="M171.754 331.042C175.11 332.352 179.027 332.296 182.56 332.626C182.639 332.625 182.718 332.608 182.789 332.576C182.86 332.544 182.922 332.497 182.97 332.44C183.018 332.383 183.051 332.316 183.067 332.245C183.082 332.174 183.079 332.101 183.058 332.032C183.071 332.023 183.082 332.012 183.089 331.999C183.096 331.986 183.1 331.971 183.1 331.956C183.1 331.942 183.096 331.927 183.089 331.914C183.082 331.901 183.071 331.89 183.058 331.881C180.962 328.993 178.067 326.653 174.663 325.095C172.647 324.228 169.468 324.039 168.512 326.349C167.556 328.658 169.79 330.279 171.754 331.042ZM169.915 328.403C168.086 324.633 173.333 325.576 174.788 326.283C175.72 326.752 176.619 327.274 177.479 327.847C179.228 329.052 180.906 330.339 182.508 331.702C180.762 331.448 179.006 331.325 177.25 331.127C175.151 330.891 170.922 330.477 169.915 328.403Z" fill="#263238"/>
<path d="M191.61 324.868L141.923 325.678C141.923 325.678 135.159 285.801 130.712 261.004C129.028 251.682 127.698 244.482 127.158 242.314C125.87 237.14 100.694 155.01 100.694 155.01L136.811 154.963H149.155C149.155 154.963 148.365 168.695 148.833 170.137C155.275 190.015 168.439 225.264 172.554 237.545C178.861 256.423 191.61 324.868 191.61 324.868Z" fill="#F73859"/>
<path d="M187.09 317.959C179.962 317.912 154.672 317.658 145.175 318.459C145.162 318.464 145.15 318.472 145.142 318.483C145.134 318.494 145.13 318.507 145.13 318.52C145.13 318.533 145.134 318.546 145.142 318.557C145.15 318.568 145.162 318.576 145.175 318.581C148.448 319.006 179.962 318.346 187.101 318.138C187.117 318.142 187.133 318.143 187.149 318.14C187.165 318.136 187.18 318.13 187.193 318.121C187.206 318.111 187.216 318.099 187.222 318.086C187.229 318.072 187.232 318.057 187.231 318.042C187.23 318.028 187.226 318.013 187.217 318C187.209 317.987 187.198 317.976 187.184 317.968C187.17 317.96 187.155 317.955 187.138 317.954C187.122 317.952 187.106 317.954 187.09 317.959Z" fill="#263238"/>
<path d="M142.734 283.974C141.016 273.663 139.1 263.377 136.988 253.116C135.949 248.074 134.816 243.041 133.361 238.036C131.907 233.031 130.057 228.083 128.166 223.173C124.446 213.408 120.893 203.597 117.558 193.72C114.222 183.842 111.115 173.927 108.206 163.927C107.832 162.664 107.468 161.401 107.063 160.157C107.063 160.053 106.866 160.1 106.887 160.157C108.019 165.19 109.484 170.176 110.887 175.152C112.29 180.129 113.796 185.086 115.365 190.025C118.524 199.94 121.949 209.786 125.641 219.563C127.48 224.426 129.392 229.28 131.024 234.209C132.655 239.139 133.922 244.134 135.055 249.167C137.351 259.384 139.305 269.666 141.113 279.949C142.921 290.232 144.469 300.684 145.986 311.052C146.183 312.362 146.37 313.681 146.557 315.001C146.609 315.368 147.253 315.368 147.212 315.001C146.038 304.662 144.427 294.303 142.734 283.974Z" fill="#263238"/>
<path d="M136.811 154.944L130.712 261.004C129.028 251.683 127.698 244.482 127.158 242.314C125.87 237.14 100.694 155.01 100.694 155.01L136.811 154.944Z" fill="#263238"/>
<path d="M152.106 362.305C149.955 362.955 88.3708 362.795 86.0226 361.438C85.1394 360.938 84.6406 352.795 84.3497 342.946C84.277 340.816 84.2354 338.629 84.1939 336.396C84.1939 333.747 84.1107 331.08 84.09 328.479C84.0172 316.81 84.1939 306.537 84.1939 306.537H124.28V336.405L124.072 342.955C124.072 342.955 147.617 352.588 150.048 354.322C152.48 356.056 154.257 361.664 152.106 362.305Z" fill="#AD6359"/>
<path d="M152.106 362.305C149.955 362.955 88.3706 362.795 86.0223 361.438C85.1392 360.938 84.6404 352.795 84.3495 342.946C84.2767 340.816 84.2352 338.629 84.1936 336.396C84.1936 333.747 84.1105 331.08 84.0897 328.479H124.27V336.405L124.062 342.955C124.062 342.955 147.606 352.588 150.038 354.322C152.469 356.056 154.256 361.664 152.106 362.305Z" fill="white"/>
<path d="M152.293 362.389C150.89 362.804 124.654 362.889 105.536 362.531C101.12 362.446 97.0778 362.333 93.8152 362.21C89.3265 362.022 86.3133 361.796 85.8146 361.513C84.7755 360.881 84.2144 348.94 83.9755 336.329H124.259L124.051 342.927C124.051 342.927 147.752 352.606 150.163 354.312C152.573 356.018 154.454 361.73 152.293 362.389Z" fill="#F73859"/>
<path d="M151.41 360.137C141.019 359.883 99.1352 359.723 88.8591 360.184C88.776 360.184 88.776 360.241 88.8591 360.25C99.1352 360.703 141.029 360.552 151.41 360.298C151.628 360.288 151.628 360.147 151.41 360.137Z" fill="#263238"/>
<path d="M125.548 340.835C121.464 340.128 116.466 340.684 113.339 343.313C113.214 343.417 113.339 343.577 113.505 343.54C117.413 342.408 121.443 341.656 125.527 341.297C125.586 341.288 125.641 341.261 125.681 341.221C125.721 341.18 125.744 341.128 125.746 341.073C125.749 341.019 125.73 340.965 125.694 340.922C125.658 340.878 125.606 340.848 125.548 340.835Z" fill="#263238"/>
<path d="M128.488 342.456C124.405 341.749 119.407 342.305 116.279 344.935C116.155 345.038 116.279 345.198 116.456 345.161C120.362 344.022 124.393 343.27 128.478 342.918C128.537 342.908 128.59 342.88 128.629 342.839C128.668 342.797 128.69 342.745 128.691 342.691C128.692 342.636 128.673 342.583 128.636 342.54C128.599 342.497 128.547 342.468 128.488 342.456Z" fill="#263238"/>
<path d="M131.439 344.067C127.356 343.37 122.358 343.926 119.22 346.556C119.106 346.659 119.22 346.81 119.397 346.772C123.305 345.642 127.335 344.894 131.418 344.539C131.487 344.541 131.554 344.519 131.605 344.476C131.656 344.434 131.686 344.375 131.688 344.312C131.691 344.25 131.667 344.189 131.62 344.143C131.573 344.097 131.508 344.07 131.439 344.067Z" fill="#263238"/>
<path d="M134.38 345.689C130.296 344.991 125.298 345.547 122.171 348.177C122.046 348.28 122.171 348.431 122.337 348.393C126.246 347.264 130.276 346.516 134.359 346.16C134.428 346.162 134.495 346.14 134.545 346.097C134.596 346.055 134.626 345.996 134.629 345.934C134.632 345.871 134.607 345.81 134.56 345.764C134.513 345.718 134.448 345.691 134.38 345.689Z" fill="#263238"/>
<path d="M133.122 332.286C131.522 330.269 128.53 331.164 126.815 332.465C123.926 334.741 121.747 337.666 120.498 340.947C120.493 340.962 120.492 340.978 120.495 340.993C120.498 341.009 120.505 341.023 120.515 341.036C120.525 341.049 120.538 341.059 120.553 341.066C120.568 341.074 120.585 341.078 120.602 341.079C120.597 341.151 120.612 341.223 120.644 341.289C120.676 341.355 120.725 341.413 120.787 341.458C120.849 341.504 120.922 341.535 121 341.549C121.078 341.563 121.159 341.561 121.236 341.541C124.613 340.419 128.374 339.599 131.273 337.564C132.998 336.404 134.629 334.18 133.122 332.286ZM125.974 338.883C124.322 339.477 122.659 339.986 121.038 340.636C122.275 338.987 123.428 337.3 124.841 335.763C125.513 335.014 126.239 334.306 127.013 333.643C128.239 332.644 133.05 330.523 132.322 334.585C131.959 336.819 127.937 338.176 125.974 338.874V338.883Z" fill="#263238"/>
<path d="M110.139 339.939C113.505 341.249 117.412 341.193 120.955 341.522C121.036 341.523 121.115 341.506 121.187 341.473C121.259 341.441 121.321 341.393 121.369 341.334C121.417 341.275 121.448 341.207 121.461 341.135C121.474 341.063 121.468 340.989 121.443 340.919C121.459 340.914 121.474 340.906 121.486 340.896C121.499 340.885 121.508 340.872 121.514 340.857C121.52 340.843 121.522 340.827 121.521 340.812C121.52 340.797 121.514 340.782 121.506 340.768C119.388 337.883 116.476 335.55 113.058 334.001C111.043 333.134 107.863 332.946 106.907 335.255C105.951 337.564 108.154 339.176 110.139 339.939ZM108.31 337.291C106.481 333.521 111.728 334.463 113.183 335.179C114.118 335.642 115.017 336.162 115.874 336.735C117.621 337.945 119.299 339.235 120.903 340.599C119.147 340.335 117.391 340.222 115.635 340.024C113.526 339.788 109.297 339.374 108.289 337.291H108.31Z" fill="#263238"/>
<path d="M129.88 333.228H81.2635C81.2635 333.228 91.8306 196.49 90.1266 188.828C87.3316 176.283 89.1915 161.872 95.7374 154.897H138.993C138.993 154.897 139.855 165.906 135.387 172.485C135.387 172.485 131.325 174.813 129.361 175.84L129.88 333.228Z" fill="#F73859"/>
<path d="M125.35 326.094C118.617 325.943 120.56 325.896 113.817 325.811C110.523 325.764 88.8798 325.491 85.7627 325.934C85.6899 325.934 85.6899 326.047 85.7627 326.056C88.8798 326.537 110.513 326.471 113.817 326.452C120.55 326.452 118.617 326.367 125.35 326.273C125.371 326.267 125.389 326.255 125.402 326.239C125.415 326.223 125.422 326.203 125.422 326.183C125.422 326.164 125.415 326.144 125.402 326.128C125.389 326.112 125.371 326.1 125.35 326.094Z" fill="#263238"/>
<path d="M138.089 170.76C133.836 172.62 129.765 174.805 125.922 177.291C125.89 177.309 125.867 177.337 125.858 177.37C125.85 177.402 125.855 177.437 125.875 177.466C125.894 177.495 125.925 177.515 125.961 177.523C125.997 177.531 126.035 177.526 126.067 177.508C130.223 175.444 134.379 173.446 138.369 171.184C138.431 171.15 138.476 171.096 138.493 171.032C138.511 170.968 138.5 170.901 138.463 170.845C138.426 170.788 138.365 170.748 138.295 170.732C138.225 170.716 138.151 170.726 138.089 170.76Z" fill="#263238"/>
<path d="M132.572 170.194C132.325 170.955 132.131 171.73 131.99 172.513C131.813 173.128 131.767 173.767 131.855 174.398C131.855 174.52 132.073 174.511 132.135 174.398C132.461 173.804 132.686 173.168 132.8 172.513C133.008 171.787 133.237 171.071 133.413 170.345C133.538 169.883 132.738 169.723 132.572 170.194Z" fill="#263238"/>
<path d="M132.187 166.414C132.301 165.755 132.416 165.104 132.551 164.454C132.686 163.804 132.873 163.097 132.946 162.418C132.946 162.305 133.153 162.343 133.133 162.418C133.018 163.078 133.008 163.756 132.946 164.416C132.883 165.076 132.821 165.745 132.748 166.405C132.602 167.649 132.387 168.885 132.104 170.109C132.822 169.998 133.503 169.744 134.099 169.364C134.651 168.848 135.014 168.19 135.138 167.479C135.346 166.725 135.533 165.971 135.751 165.217C136.045 164.401 136.257 163.562 136.385 162.71C136.385 162.597 136.593 162.635 136.572 162.71C136.403 164.502 136.034 166.274 135.47 167.998C135.349 168.681 134.962 169.303 134.379 169.751C133.629 170.114 132.806 170.335 131.958 170.401C131.865 170.401 131.72 170.401 131.73 170.297C131.811 168.997 131.964 167.701 132.187 166.414Z" fill="#263238"/>
<path d="M97.1506 188.328C96.8389 185.444 96.3194 182.579 95.9765 179.695C95.3268 173.921 95.7128 168.09 97.1195 162.428C97.1195 162.325 96.9636 162.277 96.9428 162.428C95.7126 167.401 95.1405 172.488 95.2388 177.584C95.5193 182.673 96.5168 187.687 96.5999 192.786C96.6831 197.885 96.2467 203.107 95.883 208.253C95.5193 213.399 95.1453 218.62 94.7816 223.795C93.3062 244.614 91.945 265.434 90.5423 286.264C90.1544 292.069 89.7803 297.882 89.4201 303.7C89.0461 309.609 88.5889 315.528 88.3811 321.457C88.3811 321.966 89.1916 321.928 89.2435 321.457C90.2202 311.004 90.7813 300.514 91.519 290.062C92.2567 279.61 92.9113 269.327 93.5971 258.959C94.2829 248.592 94.979 238.224 95.6752 227.857C96.0077 222.679 96.354 217.502 96.7142 212.324C97.0467 207.169 97.4623 202.004 97.5455 196.839C97.5912 193.998 97.4594 191.156 97.1506 188.328Z" fill="#263238"/>
<path d="M112.466 162.043C112.457 162.029 112.444 162.018 112.428 162.01C112.413 162.002 112.396 161.998 112.378 161.998C112.36 161.998 112.343 162.002 112.327 162.01C112.312 162.018 112.299 162.029 112.29 162.043C112.031 162.726 111.895 163.441 111.884 164.163C111.75 164.936 111.552 165.698 111.292 166.444C110.815 167.944 109.92 169.307 108.694 170.403C105.972 172.712 102.325 173.569 98.8131 174.342C98.7899 174.349 98.7696 174.362 98.7551 174.38C98.7407 174.398 98.7329 174.419 98.7329 174.441C98.7329 174.463 98.7407 174.485 98.7551 174.503C98.7696 174.52 98.7899 174.534 98.8131 174.54C100.9 174.625 102.984 174.331 104.943 173.673C106.691 173.189 108.303 172.369 109.671 171.27C110.977 170.143 111.869 168.678 112.227 167.076C112.413 166.238 112.51 165.386 112.518 164.531C112.518 164.126 112.518 163.72 112.518 163.306C112.593 162.886 112.575 162.456 112.466 162.043Z" fill="#263238"/>
<path d="M132.831 109.149C133.725 115.558 147.565 139.384 162.299 149.94C167.702 153.814 196.348 156.104 203.517 155.595C211.902 155.011 213.16 136.905 208.463 135.492C202.593 133.729 175.432 131.552 170.102 129.837C163.618 127.707 151.815 114.031 140.593 105.567C134.826 101.185 132.145 104.219 132.831 109.149Z" fill="#AD6359"/>
<path d="M203.518 155.605C206.167 155.539 218.293 154.276 221.587 153.239C224.88 152.202 234.055 148.602 233.473 146.236C232.891 143.87 230.065 144.728 230.065 144.728C230.065 144.728 233.691 142.645 232.829 140.317C231.967 137.989 227.634 139.46 227.634 139.46C227.634 139.46 231.187 137.075 230.138 134.804C229.089 132.532 225.047 134.672 225.047 134.672C225.047 134.672 228.413 132.626 226.688 131.081C224.61 129.196 218.875 133.635 215.155 134.53C214.303 134.738 197.678 137.556 197.678 137.556L203.518 155.605Z" fill="#AD6359"/>
<path d="M225.472 134.492C221.243 137.716 218.781 138.47 213.399 139.139C213.38 139.145 213.364 139.155 213.353 139.17C213.342 139.184 213.336 139.201 213.336 139.219C213.336 139.236 213.342 139.254 213.353 139.268C213.364 139.282 213.38 139.293 213.399 139.299C218.729 139.073 221.971 138.536 225.649 134.671C225.805 134.483 225.639 134.341 225.472 134.492Z" fill="#263238"/>
<path d="M227.997 139.195C223.291 142.249 220.631 143.031 215.082 144.134C215.009 144.134 215.03 144.275 215.082 144.266C220.651 143.615 223.872 143.012 228.143 139.449C228.32 139.27 228.216 139.054 227.997 139.195Z" fill="#263238"/>
<path d="M229.774 144.775C224.984 147.386 222.106 148.413 216.537 148.837C216.509 148.837 216.483 148.847 216.463 148.865C216.444 148.882 216.433 148.906 216.433 148.931C216.433 148.956 216.444 148.98 216.463 148.998C216.483 149.016 216.509 149.026 216.537 149.026C221.393 149.291 226.169 147.815 229.837 144.916C230.117 144.718 230.075 144.615 229.774 144.775Z" fill="#263238"/>
<path d="M193.834 135.577C196.632 133.936 199.56 132.484 202.593 131.232C205.523 130.289 217.887 130.289 218.023 132.721C218.21 135.85 211.071 137.104 207.487 137.311C207.487 137.311 207.933 144.54 203.019 146.453C198.104 148.367 193.834 135.577 193.834 135.577Z" fill="#AD6359"/>
<path d="M217.773 133.596C215.695 136.556 210.947 136.546 207.487 136.98C207.434 136.982 207.383 136.997 207.339 137.021C207.294 137.046 207.257 137.081 207.231 137.123C207.205 137.164 207.191 137.21 207.191 137.258C207.19 137.306 207.202 137.352 207.227 137.394C207.227 140.439 206.188 144.718 203.227 146.518C203.133 146.574 203.227 146.697 203.299 146.65C206.739 145.104 208.131 140.995 207.933 137.63C211.487 137.244 216.246 137.065 217.804 133.606C217.815 133.587 217.784 133.577 217.773 133.596Z" fill="#263238"/>
<path d="M178.768 155.256C178.768 155.256 164.096 151.617 162.309 150.345C160.359 148.955 158.5 147.463 156.74 145.878C143.388 133.974 135.325 117.744 133.143 112.089C130.837 106.066 132.956 100.298 139.138 104.181C139.636 104.501 140.115 104.844 140.572 105.209C147.846 110.958 167.297 128.441 169.666 129.337C172.035 130.232 183.454 131.589 183.454 131.589L178.768 155.256Z" fill="#384259"/>
<path d="M156.74 145.878C143.388 133.974 135.325 117.744 133.143 112.089C130.837 106.066 132.956 100.298 139.138 104.181L156.74 145.878Z" fill="#263238"/>
<path d="M178.716 131.174C178.032 132.993 177.467 134.847 177.022 136.725C176.513 138.611 175.983 140.496 175.557 142.381C174.632 146.077 173.938 149.819 173.479 153.587C173.479 153.609 173.489 153.631 173.506 153.647C173.524 153.663 173.547 153.672 173.572 153.672C173.597 153.672 173.621 153.663 173.638 153.647C173.656 153.631 173.666 153.609 173.666 153.587C174.788 149.892 175.619 146.113 176.471 142.362C176.897 140.477 177.282 138.648 177.708 136.801C178.134 134.954 178.643 133.031 178.871 131.202C178.876 131.184 178.871 131.164 178.86 131.148C178.848 131.132 178.83 131.121 178.809 131.118C178.788 131.114 178.767 131.118 178.749 131.128C178.732 131.139 178.72 131.155 178.716 131.174Z" fill="#263238"/>
<path d="M147.066 122.202C147.409 123.597 147.679 125.03 147.887 126.5C147.882 126.444 147.882 126.387 147.887 126.331C147.97 125.529 148.032 124.709 148.188 123.918C148.188 123.918 148.271 123.871 148.271 123.918C148.325 124.733 148.29 125.55 148.167 126.359C148.115 126.745 148.064 127.132 148.001 127.509C148.074 128.159 148.136 128.809 148.178 129.45C148.261 130.675 148.521 135.906 148.49 136.802C148.49 136.99 148.251 137.009 148.199 136.802C148.001 135.859 147.482 130.496 147.336 129.262C147.064 126.907 146.932 124.541 146.941 122.174C146.962 122.146 147.045 122.155 147.066 122.202Z" fill="#263238"/>
<path d="M148.718 161.354C146.64 163.05 144.105 165.529 129.517 166.453C128.602 166.453 127.667 166.519 126.732 166.453C112.684 166.095 92.9737 156.085 91.7996 155.293C91.7996 155.293 106.938 118.14 126.961 103.88C129.818 101.835 135.949 102.843 139.783 104.945C141.154 105.699 145.684 112.57 146.599 118.828C147.513 125.086 150.786 159.657 148.718 161.354Z" fill="#384259"/>
<path d="M137.341 114.257C133.808 114.521 128.748 108.979 127.085 104.832C126.971 104.549 127.885 101.844 128.821 98.5074C129.382 96.481 129.953 94.219 130.306 92.1173C130.379 91.6837 131.865 92.7016 131.865 92.7016L134.754 93.7761L144.313 97.3387C143.036 99.8521 142.104 102.498 141.538 105.218C141.508 105.513 141.508 105.809 141.538 106.104C141.543 106.151 141.543 106.198 141.538 106.245C141.507 107.914 140.749 113.974 137.341 114.257Z" fill="#AD6359"/>
<path d="M141.497 106.095C141.502 106.142 141.502 106.189 141.497 106.236C140.992 106.231 140.488 106.186 139.99 106.104C130.223 104.549 130.92 93.0791 130.92 93.0791L134.764 93.7671L144.323 97.3298C143.046 99.8432 142.114 102.489 141.549 105.209C141.501 105.502 141.484 105.799 141.497 106.095Z" fill="#263238"/>
<path d="M129.319 78.3102C127.459 82.9661 129.444 96.7455 132.977 99.9877C138.099 104.7 146.879 105.483 151.337 99.8086C155.67 94.3233 152.729 76.3969 148.75 73.4186C142.879 69.0548 132.062 71.4393 129.319 78.3102Z" fill="#AD6359"/>
<path d="M143.16 87.8477C143.16 87.8477 143.087 87.9042 143.097 87.9419C143.253 88.8844 143.274 89.9494 142.38 90.3641C142.38 90.3641 142.38 90.4207 142.38 90.4113C143.513 90.1379 143.482 88.6959 143.16 87.8477Z" fill="#263238"/>
<path d="M142.11 86.9806C140.447 87.056 140.738 90.0625 142.276 89.9966C143.814 89.9306 143.502 86.9146 142.11 86.9806Z" fill="#263238"/>
<path d="M149.456 87.2256C149.456 87.2256 149.539 87.2256 149.539 87.301C149.602 88.2435 149.841 89.2991 150.796 89.5441C149.622 89.5347 149.342 88.121 149.456 87.2256Z" fill="#263238"/>
<path d="M150.287 86.1792C151.929 85.9436 152.365 88.9407 150.817 89.1669C149.269 89.3931 148.905 86.3866 150.287 86.1792Z" fill="#263238"/>
<path d="M140.822 84.7563C141.258 84.6149 141.642 84.417 142.068 84.2379C142.532 84.1154 142.938 83.8568 143.222 83.5028C143.291 83.376 143.311 83.2318 143.279 83.0934C143.247 82.9549 143.165 82.8303 143.045 82.7394C142.775 82.5979 142.469 82.5234 142.157 82.5234C141.845 82.5234 141.538 82.5979 141.268 82.7394C140.672 82.9435 140.182 83.344 139.897 83.8609C139.845 83.9805 139.831 84.111 139.858 84.2373C139.884 84.3636 139.95 84.4804 140.047 84.5742C140.144 84.668 140.268 84.735 140.405 84.7672C140.542 84.7994 140.687 84.7957 140.822 84.7563Z" fill="#263238"/>
<path d="M151.326 85.1623C150.872 85.1169 150.421 85.0477 149.976 84.9549C149.489 84.9408 149.022 84.7818 148.646 84.5025C148.553 84.3912 148.503 84.2556 148.503 84.1161C148.503 83.9766 148.553 83.8409 148.646 83.7297C148.859 83.5237 149.131 83.3744 149.431 83.298C149.731 83.2216 150.049 83.221 150.35 83.2961C150.986 83.3558 151.574 83.6279 152.002 84.0595C152.091 84.1659 152.145 84.2938 152.156 84.4274C152.166 84.561 152.134 84.6945 152.062 84.8116C151.99 84.9286 151.883 85.0242 151.752 85.0865C151.621 85.1488 151.473 85.1751 151.326 85.1623Z" fill="#263238"/>
<path d="M148.012 92.2971C148.116 92.9753 148.182 93.658 148.209 94.3423C146.804 94.3475 145.406 94.525 144.053 94.8701C143.741 94.9644 143.741 94.7193 144.053 94.5308C145.111 93.9595 146.336 93.6932 147.565 93.7674C147.565 93.5883 147.212 91.6373 147.326 91.6279C147.884 91.6794 148.433 91.7967 148.957 91.9766C148.635 89.0737 147.804 86.2368 147.524 83.3433C147.524 83.2396 147.679 83.2019 147.711 83.2962C148.715 86.3095 149.379 89.4073 149.695 92.5421C149.789 92.9097 148.303 92.4008 148.012 92.2971Z" fill="#263238"/>
<path d="M130.421 89.7987C133.039 89.629 132.707 83.8232 132.707 83.8232C132.707 83.8232 136.697 83.1258 138.577 78.1682C138.577 78.1682 143.773 80.9957 148.064 80.2794C154.797 79.0919 154.506 71.1277 151.96 69.5349C148.344 67.2729 142.006 70.6942 142.006 70.6942C142.006 70.6942 132.322 68.3662 129.538 74.3228C128.287 74.4157 127.123 74.9353 126.278 75.7766C125.433 76.6179 124.972 77.7184 124.987 78.8562C124.737 83.1446 128.478 89.9212 130.421 89.7987Z" fill="#263238"/>
<path d="M131.782 84.5202C133.719 84.195 135.482 83.2928 136.79 81.9566C137.493 81.2342 137.993 80.3686 138.248 79.4333C138.503 78.4979 138.506 77.5206 138.255 76.5843C138.262 76.5677 138.274 76.5532 138.289 76.543C138.305 76.5328 138.324 76.5273 138.344 76.5273C138.363 76.5273 138.382 76.5328 138.398 76.543C138.414 76.5532 138.426 76.5677 138.432 76.5843C138.743 77.5646 138.811 78.5952 138.631 79.6022C138.452 80.6091 138.029 81.5676 137.393 82.409C136.758 83.2064 135.904 83.8397 134.916 84.2463C133.929 84.653 132.841 84.8188 131.761 84.7275C131.699 84.6804 131.668 84.539 131.782 84.5202Z" fill="#263238"/>
<path d="M141.746 70.9584C142.581 69.7086 143.888 68.7773 145.425 68.3382C147.292 67.8573 149.29 68.0184 151.035 68.7906C151.73 69.1207 152.316 69.6105 152.735 70.211C153.155 70.8116 153.393 71.5016 153.425 72.2119C153.446 73.8599 152.841 75.4641 151.711 76.7548C151.711 76.7548 151.617 76.7548 151.648 76.7548C152.55 75.5363 153.011 74.0935 152.968 72.6266C152.94 71.9286 152.695 71.2521 152.261 70.6751C151.827 70.0981 151.222 69.6441 150.516 69.3655C147.731 68.2817 143.679 68.5079 141.892 71.0809C141.84 71.1374 141.684 71.0432 141.746 70.9584Z" fill="#263238"/>
<path d="M131.958 89.5818C131.958 89.5818 128.706 85.0672 126.451 86.1134C124.197 87.1595 126.555 93.6534 129.122 94.5959C129.441 94.7374 129.789 94.819 130.144 94.8356C130.499 94.8522 130.854 94.8036 131.188 94.6927C131.522 94.5818 131.827 94.4109 132.086 94.1902C132.346 93.9695 132.553 93.7035 132.696 93.4083L131.958 89.5818Z" fill="#AD6359"/>
<path d="M127.127 87.9512C127.127 87.9512 127.127 87.9983 127.127 88.0172C127.948 88.4178 128.668 88.9705 129.239 89.6394C129.81 90.3083 130.22 91.0786 130.442 91.9003C130.342 91.731 130.203 91.5835 130.034 91.4679C129.866 91.3524 129.671 91.2716 129.464 91.2312C129.258 91.1909 129.044 91.1919 128.837 91.2342C128.631 91.2765 128.438 91.359 128.27 91.4761C128.27 91.4761 128.27 91.5704 128.27 91.561C128.593 91.4778 128.936 91.4875 129.252 91.5888C129.569 91.6901 129.843 91.878 130.036 92.1265C130.359 92.5448 130.631 92.9936 130.847 93.4648C130.93 93.6156 131.221 93.5402 131.169 93.3706C131.314 91.2311 129.61 88.2339 127.127 87.9512Z" fill="#263238"/>
<path d="M33.9456 380.061H0V374.406H33.9456C60.836 374.406 68.5042 353.53 70.1978 336.018C71.5278 322.305 72.3382 305.604 73.2006 287.95C76.4321 221.806 79.7778 153.408 109.12 153.408H136.011V159.063H109.1C85.7211 159.063 82.0845 233.7 79.4141 288.186C78.5413 305.933 77.7205 322.691 76.3905 336.536C73.689 364.595 58.6125 380.061 33.9456 380.061Z" fill="#F73859"/>
<path opacity="0.2" d="M136.011 153.381V159.036H114.565L113.235 153.381H136.011Z" fill="black"/>
<path d="M229.296 192.738H240.747V120.184H229.296V192.738Z" fill="#F73859"/>
<path d="M229.296 123.625H185.781V188.545H229.296V123.625Z" fill="#F73859"/>
<path opacity="0.2" d="M229.296 123.625V188.545H218.49L213.638 123.625H229.296Z" fill="black"/>
<path d="M119.864 161.985H152.147V150.421H119.864V161.985Z" fill="#F73859"/>
<path d="M152.147 150.43H119.864V161.994H152.147V150.43Z" fill="#F73859"/>
<path opacity="0.2" d="M140.811 161.985L141.871 150.43H152.147V161.985H140.811Z" fill="black"/>
<path d="M185.781 184.7H158.537C156.842 184.7 155.217 184.089 154.019 183.002C152.82 181.915 152.147 180.441 152.147 178.904V134.003C152.147 132.466 152.82 130.991 154.019 129.904C155.217 128.817 156.842 128.207 158.537 128.207H185.781V184.7Z" fill="#F73859"/>
<path opacity="0.2" d="M171.463 184.699L176.315 128.215H185.781V184.699H171.463Z" fill="black"/>
<g opacity="0.2">
<path opacity="0.2" d="M173.967 173.277H176.118V139.63H173.967V173.277Z" fill="black"/>
<path opacity="0.2" d="M167.889 173.277H170.039V139.63H167.889V173.277Z" fill="black"/>
<path opacity="0.2" d="M161.8 173.277H163.951V139.63H161.8V173.277Z" fill="black"/>
</g>
<path d="M117.88 116.943C116.84 130.553 115.656 158.272 122.285 166.406C130.982 177.075 155.534 183.55 162.808 185.491C165.925 186.33 173.396 167.584 171.546 164.888C169.697 162.193 144.354 156.406 142.359 154.822C140.364 153.239 134.047 131.147 131.044 119.893C127.158 105.699 118.306 111.571 117.88 116.943Z" fill="#AD6359"/>
<path d="M190.27 172.089C194.27 172.957 200.338 171.09 200.535 173.871C200.712 176.34 196.379 177.254 196.379 177.254C196.379 177.254 201.637 177.66 200.992 180.365C200.348 183.07 195.361 183.192 195.361 183.192C195.361 183.192 200.182 183.786 199.32 186.444C198.457 189.102 193.833 189.469 193.833 189.469C193.833 189.469 195.049 190.289 193.511 191.92C191.319 194.257 184.004 193.984 180.232 193.022C176.461 192.061 163.4 185.991 161.415 185.021L168.034 162.966C168.034 162.966 175.629 161.873 179.557 161.741C183.485 161.609 196.545 164.436 195.995 167.396C195.444 170.355 186.248 168.244 183.869 168.169C181.49 168.093 181.074 168.574 182.113 169.366C182.788 169.922 188.493 171.703 190.27 172.089Z" fill="#AD6359"/>
<path d="M196.14 177.207C190 178.149 187.132 177.527 181.5 175.322C181.386 175.275 181.292 175.416 181.407 175.473C186.706 178.065 190.187 179.243 196.203 177.461C196.504 177.386 196.442 177.169 196.14 177.207Z" fill="#263238"/>
<path d="M195.6 183.097C189.127 183.521 186.02 182.927 179.931 181.023C179.848 181.023 179.786 181.127 179.869 181.165C185.677 183.474 189.168 184.596 195.579 183.399C195.87 183.351 195.901 183.078 195.6 183.097Z" fill="#263238"/>
<path d="M193.75 189.431C187.443 189.431 184.004 188.903 178.352 186.377C178.326 186.365 178.296 186.363 178.268 186.371C178.24 186.378 178.217 186.395 178.202 186.418C178.188 186.441 178.183 186.468 178.19 186.493C178.196 186.519 178.213 186.541 178.238 186.556C183.724 189.647 188.015 190.326 193.73 189.61C194.114 189.553 194.145 189.431 193.75 189.431Z" fill="#263238"/>
<path d="M143.638 181.071C143.638 181.071 123.823 172.042 120.779 165.124C117.038 156.49 115.511 131.316 116.965 118.404C118.42 105.492 128.332 107.094 131.512 118.508C134.629 129.648 141.663 151.9 142.391 152.947C143.315 154.294 154.62 156.83 154.62 156.83" fill="#384259"/>
<path d="M141.653 150.063C141.31 148.998 140.707 146.594 140.364 145.558C139.668 143.484 138.972 141.401 138.286 139.328C137.6 137.254 136.863 135.171 136.104 133.107C135.969 132.758 135.844 132.4 135.72 132.052C135.782 131.825 135.502 129.092 135.522 128.423C135.522 128.319 135.335 128.31 135.346 128.423C135.373 129.093 135.349 129.764 135.273 130.43C135.273 130.553 135.273 130.685 135.273 130.807C134.795 129.45 134.317 128.102 133.829 126.783C133.829 126.689 133.621 126.726 133.652 126.783C134.587 129.611 135.044 131.392 135.73 133.682C136.416 135.972 137.123 138.102 137.808 140.28C138.494 142.457 139.294 144.672 140.053 146.877C140.479 148.184 140.979 149.471 141.549 150.732C141.985 151.58 142.006 151.184 141.653 150.063Z" fill="#263238"/>
<path d="M119.303 157.669C118.898 155.341 118.493 152.957 118.181 150.657C117.547 145.944 117.142 141.307 116.913 136.595C116.778 133.899 116.56 131.222 116.394 128.536C116.394 128.509 116.382 128.482 116.36 128.463C116.339 128.444 116.31 128.433 116.279 128.433C116.249 128.433 116.22 128.444 116.199 128.463C116.177 128.482 116.165 128.509 116.165 128.536C116.165 130.93 116.072 133.315 116.165 135.709C116.165 136.057 116.165 136.406 116.165 136.755L116.04 136.265C115.656 134.898 115.116 133.56 114.783 132.174C114.774 132.158 114.759 132.146 114.741 132.139C114.722 132.132 114.702 132.132 114.683 132.137C114.664 132.143 114.648 132.155 114.638 132.17C114.628 132.185 114.624 132.204 114.627 132.221C115.001 133.598 115.199 135.049 115.552 136.397C115.739 137.085 115.926 137.773 116.134 138.461L116.238 138.753C116.3 140.129 116.373 141.505 116.477 142.881C116.759 147.604 117.359 152.306 118.274 156.962C118.902 160.007 119.809 162.999 120.986 165.907C120.992 165.921 121.003 165.933 121.017 165.942C121.031 165.951 121.047 165.956 121.064 165.956C121.081 165.956 121.098 165.951 121.112 165.942C121.126 165.933 121.136 165.921 121.142 165.907C120.529 163.579 119.719 159.997 119.303 157.669Z" fill="#263238"/>
<path d="M150.942 156.821C149.857 158.513 148.885 160.263 148.033 162.061C147.118 163.833 146.193 165.605 145.331 167.396C143.582 170.922 142.053 174.534 140.749 178.215C140.746 178.236 140.752 178.257 140.763 178.275C140.775 178.292 140.793 178.306 140.815 178.313C140.836 178.321 140.859 178.322 140.881 178.316C140.903 178.31 140.922 178.298 140.936 178.281C142.869 174.794 144.521 171.166 146.204 167.575C147.035 165.803 147.835 164.012 148.656 162.24C149.477 160.468 150.412 158.687 151.046 156.858C151.067 156.802 150.973 156.774 150.942 156.821Z" fill="#263238"/>
<path d="M259.927 108.045C259.79 108.045 259.657 107.996 259.56 107.907C259.463 107.819 259.408 107.699 259.408 107.574V94.313C259.408 94.1881 259.463 94.0682 259.56 93.9798C259.657 93.8915 259.79 93.8418 259.927 93.8418C260.065 93.8418 260.197 93.8915 260.295 93.9798C260.392 94.0682 260.447 94.1881 260.447 94.313V107.574C260.447 107.699 260.392 107.819 260.295 107.907C260.197 107.996 260.065 108.045 259.927 108.045Z" fill="#263238"/>
<path d="M233.473 114.398C233.381 114.398 233.29 114.377 233.21 114.335C233.13 114.294 233.063 114.234 233.016 114.162L225.743 102.673C225.7 102.62 225.67 102.559 225.655 102.495C225.64 102.43 225.639 102.363 225.654 102.299C225.669 102.234 225.699 102.173 225.742 102.12C225.784 102.067 225.839 102.022 225.902 101.989C225.965 101.956 226.034 101.935 226.107 101.928C226.179 101.92 226.252 101.927 226.321 101.947C226.39 101.967 226.454 102 226.509 102.044C226.563 102.088 226.606 102.142 226.636 102.202L233.91 113.691C233.945 113.744 233.968 113.803 233.977 113.864C233.987 113.925 233.983 113.988 233.966 114.047C233.948 114.107 233.918 114.163 233.876 114.212C233.834 114.261 233.782 114.302 233.723 114.332C233.648 114.374 233.561 114.397 233.473 114.398Z" fill="#263238"/>
<path d="M225.867 208.949C225.776 208.95 225.686 208.927 225.608 208.884C225.549 208.849 225.5 208.805 225.461 208.753C225.422 208.701 225.396 208.642 225.383 208.58C225.371 208.518 225.372 208.455 225.387 208.394C225.403 208.332 225.432 208.275 225.472 208.224L232.746 196.744C232.78 196.69 232.825 196.643 232.88 196.605C232.934 196.567 232.996 196.539 233.062 196.523C233.128 196.507 233.197 196.503 233.265 196.511C233.333 196.519 233.398 196.539 233.458 196.57C233.517 196.601 233.569 196.642 233.611 196.691C233.653 196.74 233.683 196.796 233.701 196.856C233.719 196.916 233.724 196.979 233.715 197.04C233.706 197.102 233.684 197.161 233.65 197.215L226.376 208.695C226.329 208.779 226.256 208.848 226.165 208.893C226.074 208.938 225.97 208.958 225.867 208.949Z" fill="#263238"/>
<path d="M259.595 217.225C259.457 217.225 259.325 217.176 259.227 217.087C259.13 216.999 259.075 216.879 259.075 216.754V203.512C259.075 203.387 259.13 203.267 259.227 203.179C259.325 203.09 259.457 203.041 259.595 203.041C259.732 203.043 259.862 203.093 259.959 203.181C260.056 203.269 260.112 203.388 260.114 203.512V216.773C260.109 216.894 260.052 217.01 259.955 217.094C259.858 217.178 259.729 217.225 259.595 217.225Z" fill="#263238"/>
<path d="M293.364 209.101C293.273 209.1 293.184 209.078 293.106 209.037C293.027 208.995 292.962 208.936 292.917 208.865L285.644 197.385C285.61 197.331 285.587 197.272 285.579 197.21C285.57 197.149 285.575 197.086 285.592 197.026C285.61 196.966 285.641 196.91 285.683 196.861C285.724 196.812 285.777 196.771 285.836 196.74C285.895 196.709 285.961 196.689 286.029 196.681C286.097 196.673 286.165 196.677 286.232 196.693C286.298 196.709 286.36 196.737 286.414 196.775C286.468 196.813 286.514 196.86 286.548 196.914L293.821 208.394C293.856 208.447 293.879 208.506 293.889 208.567C293.898 208.628 293.894 208.69 293.877 208.75C293.859 208.81 293.829 208.866 293.787 208.915C293.745 208.964 293.693 209.004 293.634 209.035C293.553 209.08 293.459 209.103 293.364 209.101Z" fill="#263238"/>
<path d="M286.34 114.549C286.248 114.549 286.158 114.526 286.08 114.483C286.02 114.453 285.968 114.412 285.927 114.363C285.885 114.314 285.854 114.258 285.837 114.198C285.819 114.138 285.815 114.076 285.825 114.015C285.835 113.954 285.858 113.895 285.893 113.842L293.166 102.353C293.242 102.258 293.353 102.193 293.479 102.169C293.605 102.145 293.736 102.164 293.847 102.223C293.959 102.281 294.042 102.375 294.081 102.486C294.12 102.597 294.113 102.718 294.06 102.824L286.786 114.313C286.74 114.383 286.674 114.441 286.596 114.483C286.518 114.524 286.43 114.546 286.34 114.549Z" fill="#263238"/>
</svg>
